<svg width="46" height="44" viewBox="0 0 46 44" fill="none" xmlns="http://www.w3.org/2000/svg">
<path d="M39.2539 0.34082L44.6807 5.64355V38.3555L39.2539 43.6592H5.76758L0.34082 38.3555V5.64355L5.76758 0.34082H39.2539Z" fill="url(#paint0_linear_39_96)" fill-opacity="0.4" stroke="url(#paint1_linear_39_96)" stroke-width="0.682445"/>
<path d="M0.348877 30.9375L0.348877 38.5L5.62489 43.6562H12.6596" stroke="#00C4C4" stroke-width="0.682445"/>
<path d="M45.02 0H41.5027L45.02 3.4375V0Z" fill="#00C4C4"/>
<path d="M19.3838 9C19.6943 9 19.9563 9.23412 19.9873 9.54297C20.0387 10.0535 20.2149 10.8165 20.3965 11.3506C19.3461 12.5135 18.728 13.9857 18.6602 15.6494C18.5016 19.5383 21.5541 22.7768 25.4463 22.8105C26.7628 22.8218 27.941 22.4656 28.9951 21.8398C29.2909 22.0908 29.6075 22.3879 29.8955 22.6406L30.1719 22.876L30.3447 22.9941C30.787 23.2577 31.466 23.4313 31.6641 23.583C31.8721 23.7421 31.9757 24.0017 31.9375 24.2607C31.8541 24.8287 31.2276 25.4115 31.1016 25.8965L30.9434 26.4531C29.2176 32.0196 24.7308 31.7963 23.4023 31.5986C23.2042 31.5693 23.0264 31.7238 23.0264 31.9238V34.3926C23.0263 34.728 22.7545 34.9999 22.4189 35H14.6074C14.2718 34.9999 14 34.728 14 34.3926V9.60742C14.0001 9.27189 14.2719 9.0001 14.6074 9H19.3838ZM25.5078 10.21C28.6755 10.2103 31.2527 12.7873 31.2529 15.9551C31.2527 19.1227 28.6754 21.7008 25.5078 21.7012C22.3399 21.7012 19.762 19.1229 19.7617 15.9551C19.7619 12.7871 22.3398 10.21 25.5078 10.21ZM25.4297 17.457C24.7219 17.4572 24.1484 18.0312 24.1484 18.7393C24.1489 19.4467 24.7222 20.0203 25.4297 20.0205C26.1375 20.0204 26.7114 19.4467 26.7119 18.7393C26.7119 18.0311 26.1378 17.4571 25.4297 17.457ZM28.6309 17.7109C28.4928 17.573 28.269 17.573 28.1309 17.7109L27.8828 17.959C27.8502 17.9916 27.8244 18.0307 27.8066 18.0732C27.789 18.116 27.7793 18.1627 27.7793 18.209C27.7794 18.2551 27.789 18.3011 27.8066 18.3438C27.8244 18.3864 27.8501 18.4263 27.8828 18.459C27.9155 18.4917 27.9553 18.5174 27.998 18.5352C28.0408 18.5528 28.0866 18.5625 28.1328 18.5625C28.1792 18.5625 28.2257 18.5529 28.2686 18.5352C28.3112 18.5174 28.3502 18.4916 28.3828 18.459L28.6309 18.2109C28.7688 18.073 28.7686 17.849 28.6309 17.7109ZM22.3721 16.7305C22.0317 16.7307 21.756 17.0071 21.7559 17.3477C21.7561 17.6879 22.0318 17.9647 22.3721 17.9648C22.7126 17.9648 22.989 17.688 22.9893 17.3477C22.9891 17.007 22.7127 16.7305 22.3721 16.7305ZM27.4375 15.3281C27.0368 15.3283 26.7119 15.653 26.7119 16.0537C26.7122 16.4541 27.037 16.7791 27.4375 16.7793C27.838 16.7792 28.1628 16.4541 28.1631 16.0537C28.1631 15.6528 27.8381 15.3282 27.4375 15.3281ZM24.5 13.0781C23.6923 13.0784 23.0381 13.7333 23.0381 14.541C23.0383 15.3484 23.6924 16.0037 24.5 16.0039C25.3077 16.0038 25.9626 15.3485 25.9629 14.541C25.9628 13.7332 25.3078 13.0782 24.5 13.0781ZM27.9844 12.4248C27.5235 12.4249 27.1494 12.7988 27.1494 13.2598C27.1497 13.7205 27.5236 14.0946 27.9844 14.0947C28.4449 14.0947 28.8191 13.7205 28.8193 13.2598C28.8193 12.7988 28.4451 12.4249 27.9844 12.4248Z" fill="#0091A5"/>
<defs>
<linearGradient id="paint0_linear_39_96" x1="22.511" y1="0" x2="22.511" y2="44" gradientUnits="userSpaceOnUse">
<stop stop-color="#00C4C4"/>
<stop offset="1" stop-color="#00C4C4" stop-opacity="0.6"/>
</linearGradient>
<linearGradient id="paint1_linear_39_96" x1="0" y1="0" x2="43.9884" y2="45.0101" gradientUnits="userSpaceOnUse">
<stop offset="0.18971" stop-color="#00C4C4"/>
<stop offset="0.497724" stop-color="#00C4C4"/>
<stop offset="0.791148" stop-color="#00C4C4"/>
</linearGradient>
</defs>
</svg>
