<svg width="46" height="44" viewBox="0 0 46 44" fill="none" xmlns="http://www.w3.org/2000/svg">
<path d="M39.2539 0.34082L44.6807 5.64355V38.3555L39.2539 43.6592H5.76758L0.34082 38.3555V5.64355L5.76758 0.34082H39.2539Z" fill="url(#paint0_linear_40_276)" fill-opacity="0.4" stroke="url(#paint1_linear_40_276)" stroke-width="0.682445"/>
<path d="M0.348877 30.9375L0.348877 38.5L5.62489 43.6562H12.6596" stroke="#00C4C4" stroke-width="0.682445"/>
<path d="M45.02 0H41.5027L45.02 3.4375V0Z" fill="#00C4C4"/>
<path d="M24.8709 35C25.1073 35 25.3371 34.9197 25.525 34.7718C25.7128 34.6239 25.8483 34.4162 25.9105 34.1809L26.8943 30.4617C27.0239 29.972 27.0432 29.4581 26.9509 28.9595C26.8586 28.4609 26.6571 27.9906 26.3617 27.5846L26.1635 27.312C25.892 26.9389 25.8724 26.4324 26.1208 26.0425C27.1847 24.3726 29.8778 19.3969 29.9999 11.6568C30.0052 11.3181 29.7999 11.0115 29.4896 10.9C28.5925 10.5778 26.4966 10 23 10C19.5034 10 17.4075 10.5778 16.5104 10.9C16.2002 11.0115 15.9947 11.3181 16.0001 11.6568C16.1222 19.3969 18.8153 24.3726 19.8792 26.0425C20.1276 26.4324 20.108 26.9389 19.8366 27.312L19.6384 27.5846C19.343 27.9906 19.1414 28.4609 19.0491 28.9595C18.9568 29.4581 18.9762 29.972 19.1057 30.4617L20.0895 34.1809C20.1517 34.4162 20.2872 34.6239 20.4751 34.7718C20.6629 34.9197 20.8927 35 21.1291 35H24.8709Z" fill="#0091A5" fill-opacity="0.4"/>
<path d="M36.7879 8C36.9239 7.99983 37.0605 8.00667 37.1961 8.01953C38.5291 8.14773 39.6185 8.99541 40.0399 10.2324C40.459 11.4631 40.1239 12.7853 39.1649 13.6826L37.3289 15.3838C37.3299 15.3864 37.3309 15.389 37.3319 15.3916C37.3421 15.4188 37.3521 15.446 37.3612 15.4736C37.3769 15.522 37.3911 15.5707 37.4032 15.6201C37.4078 15.6391 37.4137 15.6577 37.4178 15.6768C37.4323 15.7443 37.4423 15.8129 37.45 15.8818C37.4529 15.9075 37.4539 15.9332 37.4559 15.959C37.459 16.0008 37.462 16.0428 37.4627 16.085C37.4634 16.121 37.4638 16.1571 37.4627 16.1934C37.4617 16.2262 37.4583 16.259 37.4559 16.292C37.4403 16.5096 37.395 16.7285 37.3201 16.9443C37.3188 16.9481 37.3185 16.9523 37.3172 16.9561C37.1007 17.5721 36.6522 18.1573 36.0106 18.5762C34.6703 19.4506 33.0033 19.2711 32.2879 18.1748C31.5728 17.0786 32.0792 15.4809 33.4188 14.6064C33.5037 14.5511 33.5904 14.5001 33.6776 14.4531C33.7956 14.3896 33.9161 14.3354 34.0369 14.2871C34.9789 13.9106 35.9802 13.9953 36.6619 14.502L38.4149 12.8779C39.0522 12.2818 39.2757 11.4028 38.9979 10.5869C38.7137 9.75241 38.0008 9.20157 37.0907 9.11426C36.9931 9.10484 36.8921 9.1006 36.7879 9.10059C35.6622 9.10059 33.8383 10.0138 31.908 10.9805C30.471 11.7001 28.9376 12.4657 27.369 13.0527C26.4988 13.3787 25.91 14.1937 25.91 15.1231V17.249C25.91 18.1745 25.5279 19.0097 24.9139 19.6084C24.4935 20.0183 24.2596 20.5818 24.2596 21.1689V23.4063C24.2596 23.4736 24.2557 23.5403 24.2479 23.6055C24.2321 23.7362 24.2007 23.8621 24.1561 23.9814C24.1116 24.1006 24.0537 24.2132 23.9842 24.3174C23.9148 24.4214 23.8337 24.517 23.743 24.6025C23.6977 24.6453 23.6504 24.6861 23.6004 24.7236C23.4275 24.8533 23.2979 25.0281 23.2254 25.2256C23.1819 25.3441 23.159 25.4709 23.159 25.6006V28.9189C23.159 28.9622 23.1618 29.0055 23.1668 29.0479C23.2021 29.345 23.3589 29.6159 23.6014 29.7979C23.7013 29.8728 23.7924 29.9586 23.8729 30.0537C24.114 30.3388 24.2596 30.7069 24.2596 31.1104V34.9619H20.9578V31.1104C20.9578 30.5723 21.2169 30.0975 21.616 29.7979C21.893 29.5901 22.0583 29.2664 22.0584 28.9199V25.5762C22.0584 25.2436 21.9116 24.9237 21.6473 24.7217C21.2259 24.3999 20.9579 23.8772 20.9578 23.3135V21.1689C20.9578 20.5818 20.7239 20.0183 20.3035 19.6084C19.6895 19.0097 19.3074 18.1745 19.3074 17.249V15.1231C19.3074 14.1938 18.7186 13.3786 17.8485 13.0527C16.2799 12.4656 14.7465 11.7001 13.3094 10.9805C11.3793 10.0138 9.55527 9.10059 8.42952 9.10059C8.32847 9.10049 8.22742 9.1047 8.12678 9.11426C7.2167 9.20162 6.5039 9.75245 6.21956 10.5869C5.94176 11.4029 6.16517 12.2818 6.80452 12.8799L8.54964 14.5068C8.55646 14.5017 8.56228 14.4953 8.56917 14.4902C8.67238 14.4149 8.78488 14.353 8.9012 14.2969C8.97252 14.2625 9.04547 14.2312 9.12093 14.2041C9.91751 13.9178 10.9273 14.0372 11.7996 14.6064C11.857 14.6439 11.911 14.6851 11.9647 14.7256C13.178 15.6197 13.6133 17.1265 12.9285 18.1758C12.2131 19.2721 10.5468 19.4525 9.20686 18.5781C8.25511 17.957 7.72713 16.9706 7.75569 16.0586C7.75622 16.0407 7.75668 16.0228 7.75764 16.0049C7.76033 15.9568 7.76351 15.9089 7.76936 15.8613C7.77411 15.8223 7.78198 15.7838 7.78889 15.7451C7.79791 15.6952 7.80844 15.6458 7.82112 15.5967C7.83197 15.5544 7.84267 15.5122 7.85628 15.4707C7.86507 15.444 7.87564 15.418 7.88557 15.3916L6.05354 13.6836C5.09343 12.7854 4.75847 11.4631 5.17757 10.2324C5.59885 8.99543 6.68838 8.1478 8.02132 8.01953C8.1534 8.00697 8.28883 8.00001 8.42952 8C9.81532 8 11.6635 8.92484 13.8026 9.9961C16.5697 11.3815 19.7052 12.951 22.6082 12.9512C25.5114 12.9512 28.6475 11.3816 31.4149 9.9961C33.5541 8.92491 35.4018 8 36.7879 8Z" fill="#0091A5"/>
<defs>
<linearGradient id="paint0_linear_40_276" x1="22.511" y1="0" x2="22.511" y2="44" gradientUnits="userSpaceOnUse">
<stop stop-color="#00C4C4"/>
<stop offset="1" stop-color="#00C4C4" stop-opacity="0.6"/>
</linearGradient>
<linearGradient id="paint1_linear_40_276" x1="0" y1="0" x2="43.9884" y2="45.0101" gradientUnits="userSpaceOnUse">
<stop offset="0.18971" stop-color="#00C4C4"/>
<stop offset="0.497724" stop-color="#00C4C4"/>
<stop offset="0.791148" stop-color="#00C4C4"/>
</linearGradient>
</defs>
</svg>
