<svg width="27" height="35" viewBox="0 0 27 35" fill="none" xmlns="http://www.w3.org/2000/svg">
<path d="M13.429 4.43598V4.31245C13.429 3.26674 13.0874 2.24964 12.4563 1.41589C12.4063 1.34987 12.3785 1.26969 12.377 1.18689C12.3755 1.1041 12.4003 1.02296 12.4478 0.955156C12.6883 0.612141 13.02 0.343342 13.4054 0.179231C13.7908 0.0151192 14.2145 -0.0377411 14.6284 0.0266417L14.6323 0.0272569C14.6852 0.0354765 14.7357 0.0544393 14.781 0.0829743C14.8262 0.111509 14.8651 0.149011 14.8952 0.193163C15.7545 1.45107 16.2141 2.93899 16.2141 4.46236V4.92665L13.429 4.43598Z" fill="#F25555"/>
<path d="M19.8107 11.8955C19.8107 12.731 19.7217 13.5368 19.5571 14.2949C19.5571 14.2949 19.2682 14.5061 19.2507 14.5792C18.4903 17.7526 16.643 19.9698 14.1671 19.9698C11.0502 19.9698 8.52344 16.3548 8.52344 11.8956C8.52344 7.43637 11.0502 3.82129 14.1671 3.82129C17.2839 3.82129 19.8107 7.43623 19.8107 11.8955Z" fill="#FF7E7B"/>
<path d="M19.5571 14.2941C18.8431 17.5814 16.7001 19.9687 14.1671 19.9687C11.0502 19.9687 8.52344 16.354 8.52344 11.8949C8.52344 11.3907 8.55584 10.8978 8.61777 10.4188C8.6816 10.4168 8.74546 10.4159 8.80931 10.416C10.217 10.416 11.5769 10.8336 12.7416 11.623L15.3592 13.3977C16.0324 13.8541 16.8177 14.0956 17.6311 14.0956C18.2853 14.0956 18.9303 14.1632 19.5571 14.2941Z" fill="#FF6464"/>
<path d="M18.9375 13.839L21.7687 11.0078C21.8098 10.9667 21.8604 10.9365 21.9161 10.9199C21.9717 10.9033 22.0307 10.9008 22.0875 10.9126C22.404 10.9784 22.6943 11.1352 22.9229 11.3637C23.1515 11.5923 23.3083 11.8826 23.374 12.1991C23.3859 12.256 23.3833 12.3149 23.3667 12.3705C23.3501 12.4262 23.3199 12.4768 23.2788 12.5179L20.4476 15.3491L18.9375 13.839Z" fill="#FF7E7B"/>
<path d="M20.168 14.5156H24.1719C24.2899 14.5156 24.4 14.575 24.4646 14.6737C24.6419 14.944 24.7363 15.2602 24.7363 15.5835C24.7363 15.9067 24.6419 16.2229 24.4646 16.4932C24.4328 16.5417 24.3894 16.5816 24.3383 16.6092C24.2872 16.6368 24.23 16.6513 24.1719 16.6513H20.168V14.5156Z" fill="#FF7E7B"/>
<path d="M22.5308 15.7841C22.5308 17.9322 21.0025 19.6736 18.8544 19.6736C16.7063 19.6736 14.9648 17.9322 14.9648 15.7841C14.9648 13.636 16.7063 11.8945 18.8544 11.8945C20.9377 11.8945 22.6387 13.5325 22.7393 15.591C22.7393 15.591 22.5308 15.7193 22.5308 15.7841Z" fill="#FF6464"/>
<path d="M22.7449 15.7856C22.7449 17.9341 21.0034 19.675 18.8548 19.675C16.7069 19.675 14.9654 17.9341 14.9654 15.7856C14.9643 14.9975 15.2035 14.2278 15.6513 13.5792C16.2556 13.9193 16.9374 14.0976 17.6308 14.0968C19.4695 14.0968 21.2378 14.6328 22.74 15.5926C22.7435 15.6567 22.7449 15.7208 22.7449 15.7856ZM2.58326 13.9036L3.05063 14.371C3.46128 14.7816 3.93908 15.1191 4.4634 15.3688C4.9877 15.6185 5.4655 15.956 5.87616 16.3666L6.3868 16.8773L4.24533 19.0186L0.856797 15.6301C0.80468 15.5779 0.768342 15.5122 0.751967 15.4403C0.735592 15.3684 0.739846 15.2934 0.764239 15.2239C0.878714 14.8975 1.06513 14.6011 1.3097 14.3565C1.55426 14.1119 1.8507 13.9255 2.17707 13.811C2.24662 13.7866 2.32165 13.7824 2.39351 13.7988C2.46537 13.8151 2.53115 13.8515 2.58326 13.9036Z" fill="#F25555"/>
<path d="M0.580293 18.6416H1.24118C1.82192 18.6416 2.39839 18.5424 2.94571 18.3482C3.49303 18.1541 4.06949 18.0548 4.65023 18.0548H5.37237V21.0832H0.580293C0.506594 21.0832 0.434394 21.0623 0.372004 21.0231C0.309614 20.9839 0.25957 20.9278 0.227631 20.8614C0.0777972 20.5497 0 20.2082 0 19.8624C0 19.5165 0.0777972 19.1751 0.227631 18.8634C0.25957 18.7969 0.309614 18.7409 0.372004 18.7017C0.434394 18.6624 0.506594 18.6416 0.580293 18.6416Z" fill="#F25555"/>
<path d="M9.15457 34.223C9.21025 34.1927 9.25673 34.148 9.28912 34.0936C9.32151 34.0391 9.3386 33.9769 9.33859 33.9136L9.41563 5.4492C9.41563 5.15766 9.29703 4.83035 9.00555 4.83035C8.65029 4.70225 8.32333 4.50449 7.9531 4.46211C7.20861 4.37688 6.4545 4.46549 5.75004 4.72098C5.45029 4.82967 5.27864 5.14556 5.34119 5.45823L5.48153 6.15993C5.58936 6.69945 5.68088 7.2421 5.75599 7.78714C5.77246 7.9067 5.63964 7.98968 5.53881 7.92331L4.05283 6.94537C3.9981 6.90959 3.93531 6.88801 3.87014 6.8826C3.80498 6.87718 3.73949 6.88809 3.67959 6.91433C3.34923 7.05793 3.06784 7.29463 2.8698 7.59554C2.67177 7.89644 2.56567 8.24852 2.56446 8.60874C2.56405 8.67413 2.57994 8.73859 2.61069 8.7963C2.64145 8.85401 2.68611 8.90314 2.74062 8.93925L4.38301 10.0201C4.85521 10.3308 5.24804 10.7479 5.52999 11.2378C5.84198 11.7794 6.23655 12.1528 6.23662 12.797L6.3559 27.2989C6.3559 28.4046 6.14392 29.6982 5.82688 30.5356C5.75598 31.1611 5.665 31.7842 5.55406 32.4039L5.24439 34.1341C5.23091 34.2094 5.24233 34.2871 5.27693 34.3553C5.31153 34.4236 5.36742 34.4787 5.43614 34.5123L5.56663 34.5763C6.30629 34.9384 7.13667 35.0732 7.9529 34.9636C7.95303 34.9638 8.70231 34.4687 9.15457 34.223Z" fill="#CE1435"/>
<path d="M9.04841 4.71487C8.69553 4.58756 8.32895 4.50201 7.95617 4.45996V9.50585C7.95617 10.0414 7.58957 10.5023 7.07107 10.6365C6.53671 10.7749 6.02052 10.9759 5.5332 11.2351C5.85033 11.7846 6.01711 12.4079 6.01677 13.0422V27.2252C6.01677 28.3309 5.95477 29.435 5.83015 30.533C6.3149 31.0049 6.831 31.4435 7.37492 31.8458C7.73975 32.1158 7.95617 32.5415 7.95617 32.9954V34.961C8.45939 34.894 8.94606 34.7352 9.39205 34.4927C9.44769 34.4625 9.49415 34.4178 9.5265 34.3634C9.55886 34.309 9.57591 34.2469 9.57586 34.1836V5.24308C9.57586 4.95153 9.34344 4.8051 9.04841 4.71487Z" fill="#CE1435"/>
<path d="M21.074 8.63388C20.2264 8.63388 19.4085 8.94564 18.776 9.50976C17.618 10.5426 16.8272 11.9239 16.523 13.4454L16.4291 13.9153L16.0074 14.4731L16.0882 15.6198L10.5059 12.9626L11.6926 12.0275L11.9422 11.1571L12.6654 10.248C13.6716 8.98303 14.9503 7.96142 16.4062 7.25923C17.8621 6.55705 19.4576 6.19238 21.074 6.19238C21.1624 6.19237 21.249 6.21734 21.3239 6.26443C21.3988 6.31151 21.4588 6.37879 21.4971 6.4585C21.6403 6.75638 21.7146 7.08266 21.7146 7.41316C21.7146 7.74367 21.6403 8.06995 21.4971 8.36783C21.4588 8.44752 21.3987 8.51478 21.3239 8.56184C21.249 8.60891 21.1624 8.63388 21.074 8.63388Z" fill="#CE1435"/>
<path d="M16.429 13.9147L16.0882 15.6189L10.5059 12.9619L11.9417 11.1562C12.2174 11.2942 12.4838 11.4501 12.7389 11.6231L15.3565 13.3978C15.6867 13.6219 16.048 13.796 16.429 13.9147Z" fill="#CE1435"/>
<path d="M14.5256 14.6214L12.0789 12.9626L11.7575 13.0403C11.4766 12.8499 11.0225 12.3585 11.0225 12.3585C10.3236 12.0525 9.5689 11.8945 8.80595 11.8944C6.50035 11.8944 4.43687 13.3254 3.62874 15.4847C3.00873 17.1412 2.7353 18.9074 2.82536 20.6739C2.91543 22.4404 3.36708 24.1696 4.15237 25.7545C5.03631 27.5386 6.30042 29.1073 7.85577 30.3503C9.41113 31.5933 11.2199 32.4804 13.155 32.9492L17.6617 34.0411L21.4078 34.3756C21.6465 34.4334 21.8382 34.5545 22.0839 34.5545C23.3574 34.5545 24.4032 34.2194 24.8685 33.0338L25.449 31.5547C26.9804 27.6528 26.4434 23.3744 24.3705 19.7312C23.4631 18.1365 22.1169 17.2093 20.6302 16.1575C20.3419 16.041 20.047 15.9413 19.7471 15.859C19.3465 16.1157 19.0946 16.0362 18.7039 15.6463C18.3471 15.598 17.9875 15.5738 17.6275 15.5738C16.5216 15.5737 15.4411 15.242 14.5256 14.6214Z" fill="#FF7E7B"/>
<path d="M25.4496 31.5541L24.8693 33.033C24.6422 33.6125 24.2456 34.11 23.7312 34.4604C23.2168 34.8111 22.6087 34.9986 21.9862 34.9985C21.7404 34.9985 21.496 34.9689 21.2573 34.9112L17.4355 33.9852C17.5144 33.9908 17.594 33.9936 17.6736 33.9936C18.4088 33.9936 19.106 33.769 19.6869 33.3725C20.2679 32.976 20.7327 32.4091 21.001 31.7247L21.6714 30.0176C23.439 25.5135 23.0756 20.4515 20.6826 16.2466C20.6658 16.2164 20.6481 16.1868 20.6306 16.1572C20.9842 16.2998 21.3271 16.4676 21.6566 16.6593C22.8802 17.3708 23.8934 18.3937 24.5932 19.624C26.6664 23.2669 26.9805 27.652 25.4496 31.5541Z" fill="#FF6464"/>
<path d="M11.5881 16.676C12.4148 18.0281 12.5937 19.6626 12.0797 21.1612C12.0572 21.2268 12.022 21.2874 11.9761 21.3394C11.9302 21.3914 11.8745 21.4339 11.8121 21.4644C11.7498 21.4949 11.6821 21.5128 11.6128 21.5171C11.5436 21.5213 11.4741 21.5119 11.4085 21.4894C11.1325 21.395 10.986 21.0943 11.0803 20.819C11.4564 19.7239 11.3683 18.5387 10.8472 17.5169C10.6184 17.899 10.3604 18.2627 10.0754 18.6049C8.87891 20.0422 8.22048 21.8634 8.22048 23.7337V23.8056C8.22043 23.9456 8.16477 24.0799 8.06573 24.1789C7.9667 24.278 7.8324 24.3336 7.69234 24.3337C7.62298 24.3337 7.55428 24.3201 7.49019 24.2936C7.4261 24.267 7.36786 24.2281 7.31881 24.1791C7.26976 24.13 7.23086 24.0718 7.20433 24.0077C7.17781 23.9436 7.16417 23.8749 7.16421 23.8056V23.7337C7.16421 21.6169 7.91 19.5556 9.26418 17.9288C9.83388 17.245 10.2747 16.469 10.5733 15.6422C9.36276 16.4282 7.92968 16.8577 6.48322 16.8577C6.19167 16.8577 5.95508 16.6211 5.95508 16.3296C5.95508 16.038 6.19167 15.8015 6.48322 15.8015C7.88108 15.8015 9.26418 15.336 10.3775 14.4909L10.9613 14.0472C11.005 13.7205 11.0268 13.3895 11.0268 13.0571V12.3593C11.3361 12.4946 11.6324 12.658 11.912 12.8473L12.0831 12.9635V13.0571C12.0826 14.2021 11.8552 15.3357 11.4141 16.3923L11.5881 16.676ZM23.7091 28.1041C23.6596 28.1588 23.5992 28.2024 23.5317 28.2323C23.4643 28.2621 23.3913 28.2775 23.3175 28.2773C23.1866 28.2775 23.0602 28.2288 22.9633 28.1407L22.3105 27.5491C21.3034 26.6351 20.6471 25.39 20.4641 24.0421C20.4039 23.6007 20.2818 23.17 20.1014 22.7626L19.6472 21.7387C19.5737 22.237 19.4616 22.7288 19.3119 23.2098C19.3069 23.2303 19.3008 23.2505 19.2936 23.2704C19.1483 23.7295 18.9687 24.177 18.7563 24.6091C18.1768 25.788 17.8704 27.1056 17.8704 28.4196V29.8844C17.8703 30.0245 17.8147 30.1588 17.7156 30.2578C17.6166 30.3568 17.4823 30.4125 17.3423 30.4126C17.2022 30.4125 17.0679 30.3568 16.9689 30.2578C16.8698 30.1588 16.8142 30.0245 16.8141 29.8844V28.4196C16.8141 26.9449 17.1578 25.4661 17.8085 24.1428C17.8402 24.0787 17.8705 24.0147 17.9 23.9499C16.512 24.4597 15.4796 25.6132 15.1296 27.0555C15.0712 27.297 14.855 27.459 14.6169 27.459C14.5747 27.4589 14.5326 27.454 14.4916 27.4442C14.2085 27.3752 14.0338 27.09 14.1028 26.8062C14.5465 24.9788 15.8739 23.5246 17.6535 22.9161L18.3704 22.6711C18.5837 21.9105 18.695 21.1211 18.695 20.3324V15.6451C19.0515 15.693 19.4044 15.7648 19.7513 15.8599V19.3669L21.0668 22.3345C21.2879 22.8327 21.4373 23.3598 21.5105 23.9C21.6612 25.0031 22.1957 26.0179 23.0203 26.7661L23.6724 27.3577C23.7762 27.4518 23.8384 27.5833 23.8453 27.7233C23.8521 27.8632 23.8032 28.0002 23.7091 28.1041Z" fill="#FF6464"/>
</svg>
