<svg width="46" height="44" viewBox="0 0 46 44" fill="none" xmlns="http://www.w3.org/2000/svg">
<path d="M39.2539 0.34082L44.6807 5.64355V38.3555L39.2539 43.6592H5.76758L0.34082 38.3555V5.64355L5.76758 0.34082H39.2539Z" fill="url(#paint0_linear_39_46)" fill-opacity="0.4" stroke="url(#paint1_linear_39_46)" stroke-width="0.682445"/>
<path d="M0.348877 30.9375L0.348877 38.5L5.62489 43.6562H12.6596" stroke="#00C4C4" stroke-width="0.682445"/>
<path d="M45.02 0H41.5027L45.02 3.4375V0Z" fill="#00C4C4"/>
<path d="M13.1482 16.7214C13.0205 16.7214 12.8981 16.6738 12.8078 16.5892C12.7175 16.5045 12.6667 16.3897 12.6667 16.27V10.4019C12.6667 10.1625 12.7682 9.93286 12.9488 9.76356C13.1294 9.59427 13.3743 9.49915 13.6297 9.49915H15.5556C15.6833 9.49915 15.8058 9.54671 15.8961 9.63133C15.9864 9.716 16.0371 9.83082 16.0371 9.95054C16.0371 10.0703 15.9864 10.185 15.8961 10.2697C15.8058 10.3544 15.6833 10.4019 15.5556 10.4019H13.6297V16.27C13.6297 16.3897 13.579 16.5045 13.4887 16.5892C13.3984 16.6738 13.2759 16.7214 13.1482 16.7214ZM23.7409 16.7214C23.6132 16.7214 23.4907 16.6738 23.4004 16.5892C23.3101 16.5045 23.2594 16.3897 23.2594 16.27V10.4019H21.3334C21.2057 10.4019 21.0833 10.3544 20.993 10.2697C20.9027 10.185 20.8519 10.0703 20.8519 9.95054C20.8519 9.83082 20.9027 9.716 20.993 9.63133C21.0833 9.54671 21.2057 9.49915 21.3334 9.49915H23.2594C23.5148 9.49915 23.7597 9.59427 23.9403 9.76356C24.1209 9.93286 24.2223 10.1625 24.2223 10.4019V16.27C24.2223 16.3897 24.1716 16.5045 24.0813 16.5892C23.991 16.6738 23.8685 16.7214 23.7409 16.7214Z" fill="#0091A5"/>
<path d="M35.7778 35.4991C37.3733 35.4991 38.6667 34.2057 38.6667 32.6102C38.6667 31.0147 37.3733 29.7213 35.7778 29.7213C34.1823 29.7213 32.8889 31.0147 32.8889 32.6102C32.8889 34.2057 34.1823 35.4991 35.7778 35.4991Z" fill="#0091A5"/>
<path d="M35.778 31.8224V20.3325C35.778 18.9917 35.2599 17.7058 34.3376 16.7577C33.4153 15.8096 32.1644 15.277 30.8601 15.277C29.5557 15.277 28.3048 15.8096 27.3825 16.7577C26.4602 17.7058 25.942 18.9917 25.942 20.3325V29.9841C25.942 30.9592 25.5652 31.8944 24.8944 32.5839C24.2237 33.2734 23.3139 33.6608 22.3653 33.6608C21.4167 33.6608 20.507 33.2734 19.8362 32.5839C19.1654 31.8944 18.7886 30.9592 18.7886 29.9841V24.4689H17.0002V29.9841C17.0002 31.4468 17.5655 32.8496 18.5716 33.8839C19.5778 34.9181 20.9424 35.4992 22.3653 35.4992C23.7883 35.4992 25.1529 34.9181 26.159 33.8839C27.1652 32.8496 27.7304 31.4468 27.7304 29.9841V20.3325C27.7304 19.4793 28.0601 18.661 28.647 18.0577C29.234 17.4543 30.03 17.1153 30.8601 17.1153C31.6901 17.1153 32.4861 17.4543 33.073 18.0577C33.6599 18.661 33.9896 19.4793 33.9896 20.3325V31.8224H35.778Z" fill="#0091A5"/>
<path d="M18.4445 25.3881C16.9127 25.3863 15.4442 24.7562 14.361 23.6362C13.2778 22.516 12.6685 20.9974 12.6667 19.4133V16.1962C12.6667 15.9524 12.7604 15.7186 12.9271 15.5462C13.0938 15.3738 13.3199 15.277 13.5557 15.277C13.7914 15.277 14.0175 15.3738 14.1842 15.5462C14.3509 15.7186 14.4446 15.9524 14.4446 16.1962V19.4133C14.4446 20.5104 14.866 21.5625 15.6161 22.3382C16.3663 23.1139 17.3837 23.5497 18.4445 23.5497C19.5054 23.5497 20.5228 23.1139 21.2729 22.3382C22.0231 21.5625 22.4445 20.5104 22.4445 19.4133V16.1962C22.4445 15.9524 22.5382 15.7186 22.7049 15.5462C22.8716 15.3738 23.0977 15.277 23.3335 15.277C23.5692 15.277 23.7953 15.3738 23.962 15.5462C24.1287 15.7186 24.2223 15.9524 24.2223 16.1962V19.4133C24.2205 20.9974 23.6113 22.516 22.5281 23.6362C21.4449 24.7562 19.9763 25.3863 18.4445 25.3881Z" fill="#0091A5"/>
<path d="M15.9684 9.49915H16.381C16.5999 9.49915 16.8099 9.57524 16.9647 9.71068C17.1195 9.84612 17.2064 10.0298 17.2064 10.2214C17.2064 10.4129 17.1195 10.5966 16.9647 10.7321C16.8099 10.8675 16.5999 10.9436 16.381 10.9436H15.9684C15.8589 10.9436 15.7539 10.9055 15.6765 10.8378C15.5991 10.7701 15.5557 10.6782 15.5557 10.5825V9.86027C15.5557 9.76449 15.5991 9.67263 15.6765 9.60489C15.7539 9.5372 15.8589 9.49915 15.9684 9.49915ZM20.9207 10.9436H20.508C20.2891 10.9436 20.0792 10.8675 19.9244 10.7321C19.7696 10.5966 19.6826 10.4129 19.6826 10.2214C19.6826 10.0298 19.7696 9.84612 19.9244 9.71068C20.0792 9.57524 20.2891 9.49915 20.508 9.49915H20.9207C21.0302 9.49915 21.1351 9.5372 21.2125 9.60489C21.29 9.67263 21.3334 9.76449 21.3334 9.86027V10.5825C21.3334 10.6782 21.29 10.7701 21.2125 10.8378C21.1351 10.9055 21.0302 10.9436 20.9207 10.9436Z" fill="#0091A5"/>
<path d="M35.7777 34.0548C36.5754 34.0548 37.2221 33.4081 37.2221 32.6104C37.2221 31.8126 36.5754 31.1659 35.7777 31.1659C34.98 31.1659 34.3333 31.8126 34.3333 32.6104C34.3333 33.4081 34.98 34.0548 35.7777 34.0548Z" fill="#0091A5"/>
<defs>
<linearGradient id="paint0_linear_39_46" x1="22.511" y1="0" x2="22.511" y2="44" gradientUnits="userSpaceOnUse">
<stop stop-color="#00C4C4"/>
<stop offset="1" stop-color="#00C4C4" stop-opacity="0.6"/>
</linearGradient>
<linearGradient id="paint1_linear_39_46" x1="0" y1="0" x2="43.9884" y2="45.0101" gradientUnits="userSpaceOnUse">
<stop offset="0.18971" stop-color="#00C4C4"/>
<stop offset="0.497724" stop-color="#00C4C4"/>
<stop offset="0.791148" stop-color="#00C4C4"/>
</linearGradient>
</defs>
</svg>
