<svg width="34" height="33" viewBox="0 0 34 33" fill="none" xmlns="http://www.w3.org/2000/svg">
<path d="M6.98735 11.307L3.71991 11.7412L0 11.307V9.45848C0 8.96823 0.397386 8.57084 0.887635 8.57084H6.98728C8.31713 8.57084 9.63342 8.22752 10.7938 7.57816L12.3552 6.70421C14.0401 5.76274 15.3149 4.22871 15.9321 2.40003L16.5912 0.451281C16.7085 0.104602 17.0846 -0.0813965 17.4313 0.035828L18.7678 0.487892C19.1144 0.605185 19.3004 0.981289 19.1832 1.32797L18.5241 3.27671C17.6872 5.75102 15.971 7.81624 13.6917 9.09189L12.1302 9.96584C10.5584 10.8443 8.78799 11.306 6.98735 11.307Z" fill="#FFEEE6"/>
<path d="M18.77 0.487968L17.4335 0.0359041C17.1176 -0.0709187 16.7781 0.0744315 16.6314 0.363216L17.0001 0.487968C17.3468 0.605261 17.5328 0.981365 17.4156 1.32804L16.7565 3.27679C15.9195 5.7511 14.2034 7.81632 11.924 9.09196L10.3626 9.96591C8.7908 10.8444 7.02037 11.3061 5.21973 11.3071L6.22164 11.4092L6.98966 11.3071C8.7903 11.3061 10.5607 10.8444 12.1326 9.96591L13.694 9.09196C15.9733 7.81632 17.6895 5.7511 18.5264 3.27679L19.1855 1.32804C19.3027 0.981296 19.1167 0.605192 18.77 0.487968Z" fill="#FFDFCF"/>
<path d="M33.9988 9.93036V11.3072L28.4735 11.9341L19.3965 11.3072L22.1007 10.3212C24.4203 9.47543 26.8703 9.04271 29.3394 9.04272H33.1112C33.6015 9.04272 33.9988 9.44018 33.9988 9.93036Z" fill="#FFEEE6"/>
<path d="M31.4287 9.04272C31.6606 9.11373 31.8635 9.25728 32.0077 9.45224C32.1519 9.64721 32.2298 9.8833 32.2298 10.1258V11.5081L33.9997 11.3072V9.93036C33.9997 9.44011 33.6023 9.04272 33.1121 9.04272H31.4287Z" fill="#FFDFCF"/>
<path d="M33.9979 31.3867V29.3321L16.9989 28.0035L0 29.3321V31.3867C0 31.8769 0.397386 32.2743 0.887635 32.2743H33.1102C33.6005 32.2743 33.9979 31.8769 33.9979 31.3867Z" fill="#FF9F47"/>
<path d="M32.2293 29.193V31.0677C32.2293 31.6097 31.8878 32.0928 31.377 32.2736H33.1116C33.6019 32.2736 33.9993 31.8762 33.9993 31.386V29.3313L32.2293 29.193Z" fill="#E08938"/>
<path d="M33.9979 20.3231V29.3322H14.2633L13.8033 28.9927L13.2369 29.3322H0V19.1645L24.4132 17.3038L32.2282 19.7653L33.9979 20.3231Z" fill="#FFBE82"/>
<path d="M33.9998 20.3227V29.3319H32.2302V19.765L33.9998 20.3227ZM30.3182 24.8161L28.2239 22.418V18.4465C28.2239 18.163 27.9942 17.9332 27.7107 17.9332C27.4272 17.9332 27.1975 18.163 27.1975 18.4465V22.4331L25.8746 24.1165C25.8329 24.1695 25.8021 24.2302 25.784 24.2951C25.7658 24.36 25.7605 24.4278 25.7686 24.4948C25.7848 24.6299 25.854 24.7531 25.9611 24.8372C26.0681 24.9213 26.2042 24.9594 26.3393 24.9432C26.4745 24.927 26.5976 24.8578 26.6817 24.7507L27.7315 23.4149L29.5449 25.4914C29.593 25.5466 29.6525 25.5909 29.7192 25.6212C29.7859 25.6514 29.8584 25.6671 29.9317 25.667C30.0302 25.6669 30.1267 25.6385 30.2095 25.5852C30.2924 25.5318 30.3581 25.4557 30.3988 25.3659C30.4396 25.2762 30.4537 25.1767 30.4394 25.0792C30.4251 24.9816 30.383 24.8903 30.3182 24.8161ZM15.7113 22.696L14.2653 26.5337V29.3319H13.2388V26.6911L10.7007 24.7079C10.1129 24.2487 9.37789 23.9962 8.63198 23.9962H8.0982C7.81489 23.9962 7.58496 23.7663 7.58496 23.483C7.58496 23.1996 7.81489 22.9697 8.0982 22.9697H8.63198C9.60577 22.9697 10.5645 23.2996 11.3323 23.899L13.518 25.6064L14.7505 22.334C14.8504 22.0691 15.1467 21.935 15.4122 22.0349C15.6771 22.1348 15.8112 22.4311 15.7113 22.696Z" fill="#FF9F47"/>
<path d="M20.6806 26.5926C20.9599 26.5926 21.1864 26.3662 21.1864 26.0868C21.1864 25.8075 20.9599 25.5811 20.6806 25.5811C20.4013 25.5811 20.1748 25.8075 20.1748 26.0868C20.1748 26.3662 20.4013 26.5926 20.6806 26.5926Z" fill="#FF9F47"/>
<path d="M3.38469 25.6589C3.66403 25.6589 3.89047 25.4325 3.89047 25.1531C3.89047 24.8738 3.66403 24.6473 3.38469 24.6473C3.10535 24.6473 2.87891 24.8738 2.87891 25.1531C2.87891 25.4325 3.10535 25.6589 3.38469 25.6589Z" fill="#FF9F47"/>
<path d="M33.9979 14.7228V20.3229L29.2744 19.4281C28.3566 19.2537 27.4123 19.2749 26.5032 19.4904L21.9248 20.5733C20.9086 20.8135 19.8501 20.8112 18.8349 20.5664L14.6279 19.5533C13.5668 19.2976 12.4591 19.307 11.4025 19.5807L7.91789 20.4823C6.76456 20.7813 5.55206 20.7647 4.40731 20.4344L0 19.164V14.7228L17.0054 13.7838L33.9979 14.7228Z" fill="#FFD4AC"/>
<path d="M32.2295 14.6249V19.9874L33.9994 20.3227V14.7227L32.2295 14.6249Z" fill="#F8C291"/>
<path d="M0 11.3075H33.9979V14.7231H0V11.3075Z" fill="#FFDFCF"/>
<path d="M32.2295 11.3075H33.9994V14.7231H32.2295V11.3075Z" fill="#FFCEBF"/>
</svg>
