<svg width="46" height="44" viewBox="0 0 46 44" fill="none" xmlns="http://www.w3.org/2000/svg">
<path d="M39.2539 0.34082L44.6807 5.64355V38.3555L39.2539 43.6592H5.76758L0.34082 38.3555V5.64355L5.76758 0.34082H39.2539Z" fill="url(#paint0_linear_39_103)" fill-opacity="0.4" stroke="url(#paint1_linear_39_103)" stroke-width="0.682445"/>
<path d="M0.348877 30.9375L0.348877 38.5L5.62489 43.6562H12.6596" stroke="#00C4C4" stroke-width="0.682445"/>
<path d="M45.02 0H41.5027L45.02 3.4375V0Z" fill="#00C4C4"/>
<path d="M35.7285 29.3118C35.7458 29.3202 35.7609 29.3326 35.7725 29.3479L37.0488 31.0637C37.8898 32.1947 37.0823 33.801 35.6729 33.801C34.2635 33.8008 33.457 32.1946 34.2979 31.0637L35.5742 29.3479C35.5854 29.3326 35.6008 29.3202 35.6182 29.3118C35.6354 29.303 35.6545 29.2981 35.6738 29.2981C35.6927 29.2981 35.7113 29.303 35.7285 29.3118ZM23.4395 10.2248C23.8308 9.90595 24.4154 9.92553 24.7803 10.2883C25.7599 11.2633 25.7619 12.8487 24.7852 13.8254L23.2803 15.3293C23.1031 15.5065 22.9865 15.7395 22.9697 15.9895C22.9304 16.5764 23.3951 17.0647 23.9736 17.0647H35.958C36.7014 17.0647 37.3349 17.5292 37.5889 18.1828L37.5908 18.1809C37.599 18.2017 37.605 18.2233 37.6123 18.2444C37.6206 18.2683 37.6285 18.2923 37.6357 18.3166C37.6444 18.3457 37.6511 18.3751 37.6582 18.4045C37.6641 18.4289 37.6709 18.453 37.6758 18.4778C37.6978 18.5892 37.7101 18.7026 37.71 18.8166C37.7099 19.7835 36.9259 20.5676 35.959 20.5676H29.9531L30.1318 20.5764C30.4843 20.6121 30.8062 20.7518 31.0654 20.9651L31.2051 21.093C31.2196 21.1078 31.2321 21.1245 31.2461 21.1399C31.2717 21.168 31.2975 21.1961 31.3213 21.2258C31.3303 21.2371 31.3379 21.2495 31.3467 21.261C31.3742 21.2972 31.4011 21.3339 31.4258 21.3723C31.4364 21.3889 31.4459 21.4061 31.4561 21.4231C31.4757 21.456 31.4942 21.4894 31.5117 21.5237C31.5242 21.548 31.5356 21.5729 31.5469 21.5979C31.5608 21.6287 31.5737 21.6599 31.5859 21.6916C31.595 21.7153 31.6042 21.7388 31.6123 21.7629C31.6246 21.7998 31.6346 21.8373 31.6445 21.8752C31.65 21.8961 31.6565 21.9166 31.6611 21.9377C31.6883 22.0603 31.7041 22.1878 31.7041 22.3186C31.7039 23.2853 30.9198 24.0694 29.9531 24.0696C30.3752 24.0697 30.7631 24.2182 31.0654 24.467L31.2051 24.595C31.2196 24.6098 31.2321 24.6265 31.2461 24.6418C31.2717 24.67 31.2975 24.698 31.3213 24.7278C31.3303 24.7391 31.3379 24.7514 31.3467 24.7629C31.3742 24.7992 31.4011 24.8359 31.4258 24.8743C31.4364 24.8908 31.4459 24.9081 31.4561 24.925C31.4757 24.9579 31.4942 24.9914 31.5117 25.0256C31.5242 25.05 31.5356 25.0748 31.5469 25.0998C31.5608 25.1307 31.5738 25.1619 31.5859 25.1936C31.595 25.2172 31.6042 25.2408 31.6123 25.2649C31.6246 25.3017 31.6346 25.3393 31.6445 25.3772C31.65 25.398 31.6565 25.4186 31.6611 25.4397C31.6883 25.5621 31.7041 25.689 31.7041 25.8196C31.7041 26.7865 30.9201 27.5705 29.9531 27.5705C30.3754 27.5705 30.763 27.72 31.0654 27.969L31.2051 28.0969C31.2196 28.1117 31.2321 28.1284 31.2461 28.1438C31.2717 28.1719 31.2975 28.2 31.3213 28.2297C31.3291 28.2395 31.3361 28.25 31.3438 28.26C31.3725 28.2976 31.4001 28.3362 31.4258 28.3762C31.4364 28.3928 31.4459 28.41 31.4561 28.427C31.4757 28.4599 31.4942 28.4933 31.5117 28.5276C31.5224 28.5486 31.5331 28.5696 31.543 28.5911C31.5578 28.6234 31.5711 28.6564 31.584 28.6897C31.5944 28.7164 31.6042 28.7434 31.6133 28.7707C31.6232 28.8007 31.6323 28.8309 31.6406 28.8616C31.648 28.8888 31.656 28.9159 31.6621 28.9436C31.689 29.0654 31.7041 29.1917 31.7041 29.3215C31.7041 30.1677 31.1037 30.8742 30.3057 31.0373C30.1918 31.0606 30.0739 31.0725 29.9531 31.0725H25.3408L25.3203 31.0705L19.1865 31.0696C17.8436 31.0273 16.6197 30.3509 15.8457 29.3362C15.15 28.424 14.0856 27.8685 12.9385 27.8684H7.61816C7.27691 27.8684 7.00002 27.5912 7 27.2502V19.595C7 19.2537 7.2769 18.9768 7.61816 18.9768H13.5459C14.0446 18.9768 14.5379 18.8748 14.9961 18.678C15.4543 18.4811 15.8677 18.193 16.2109 17.8313L23.1885 10.4787L23.3643 10.2932C23.3885 10.269 23.4134 10.246 23.4395 10.2248ZM35.7285 22.5588C35.7457 22.5674 35.761 22.5797 35.7725 22.595L37.0488 24.3118C37.8898 25.4427 37.0823 27.0491 35.6729 27.0491C34.2635 27.0488 33.457 25.4427 34.2979 24.3118L35.5742 22.595C35.5854 22.5796 35.6009 22.5674 35.6182 22.5588C35.6354 22.5502 35.6546 22.5452 35.6738 22.5452C35.6927 22.5452 35.7114 22.5503 35.7285 22.5588Z" fill="#0091A5"/>
<defs>
<linearGradient id="paint0_linear_39_103" x1="22.511" y1="0" x2="22.511" y2="44" gradientUnits="userSpaceOnUse">
<stop stop-color="#00C4C4"/>
<stop offset="1" stop-color="#00C4C4" stop-opacity="0.6"/>
</linearGradient>
<linearGradient id="paint1_linear_39_103" x1="0" y1="0" x2="43.9884" y2="45.0101" gradientUnits="userSpaceOnUse">
<stop offset="0.18971" stop-color="#00C4C4"/>
<stop offset="0.497724" stop-color="#00C4C4"/>
<stop offset="0.791148" stop-color="#00C4C4"/>
</linearGradient>
</defs>
</svg>
