<svg width="31" height="35" viewBox="0 0 31 35" fill="none" xmlns="http://www.w3.org/2000/svg">
<path d="M20.5352 9.20178V15.2292L20.3634 15.9174L20.5352 18.1643L17.9583 21.6562L11.2817 21.6355L10.2891 18.1643L10.7716 15.9083L10.2891 15.2292V9.20178H20.5352Z" fill="#A9DEDF"/>
<path d="M20.5353 15.2296V17.194L19.4478 17.5118C18.1466 17.958 16.7792 18.1807 15.4119 18.1807C14.0446 18.1807 12.6778 17.9579 11.3765 17.5118L10.2891 17.2005V15.2296L12.0166 15.8215C13.1118 16.1964 14.2615 16.3838 15.4119 16.3838C16.5623 16.3838 17.7127 16.1964 18.8072 15.8215L20.5353 15.2296Z" fill="#C8E9EB"/>
<path d="M29.5171 18.8211C29.4802 18.7567 29.4582 18.6848 29.4528 18.6107C29.4473 18.5366 29.4586 18.4622 29.4857 18.3931L29.8243 17.5225C30.4894 15.8122 30.1618 14.0279 29.0561 12.5633L28.09 11.2835C28.09 11.2835 28.5855 9.9274 28.9773 8.85588C29.2753 8.04082 29.2303 7.01271 28.8242 6.23432L28.8039 6.19546C28.1539 4.94992 27.3769 4.4542 25.972 4.45501L25.9028 4.45509C25.3228 4.45541 24.7465 4.59317 24.6681 5.16776L24.4451 6.80314C23.8453 11.2025 22.0799 15.3613 19.3318 18.8486C19.0377 19.2217 18.6629 19.5233 18.2355 19.7307C17.8081 19.938 17.3393 20.0457 16.8643 20.0458H13.9595C13.4844 20.0458 13.0156 19.938 12.5882 19.7307C12.1608 19.5233 11.786 19.2218 11.492 18.8486C8.74387 15.3613 6.97842 11.2025 6.37862 6.80314L6.15567 5.16776C6.11779 4.88993 5.98052 4.63523 5.76928 4.45083C5.55805 4.26643 5.28715 4.16481 5.00675 4.1648H4.98955C3.55237 4.16439 2.2338 4.96338 1.56584 6.24357L1.54418 6.28511C1.35329 6.65097 1.24084 7.05262 1.214 7.46441C1.18716 7.87619 1.24653 8.28904 1.38832 8.67658L1.7883 9.76992L2.33733 10.1602L2.29384 11.1518L1.32771 12.4316C0.783943 13.152 0.433384 13.9993 0.309345 14.8933C0.185307 15.7873 0.291909 16.6981 0.619022 17.5393L0.957102 18.4087C0.984294 18.4781 0.995546 18.5527 0.990028 18.627C0.984509 18.7013 0.962359 18.7735 0.925216 18.8381C-0.182892 20.7513 -0.320412 23.2258 0.647013 25.269L0.998641 26.0225L1.58596 26.2493L1.79463 27.7286V30.1067C1.79468 30.8525 1.98247 31.5864 2.34069 32.2406C2.69892 32.8948 3.21606 33.4483 3.84445 33.8501L3.90197 33.8869C5.03878 34.6136 6.35981 34.9997 7.70903 34.9998H7.77978C8.29446 34.9998 8.79887 34.8558 9.23596 34.584C9.67304 34.3122 10.0253 33.9236 10.253 33.462L11.5273 30.8785L11.5292 30.1843L12.0968 29.7241L12.8175 30.1115C13.6151 30.5403 14.5064 30.7648 15.4119 30.7648C16.3174 30.7648 17.2088 30.5403 18.0063 30.1115L18.7271 29.7241L19.2226 30.1017L19.2965 30.8784L20.5708 33.462C20.6205 33.5631 20.6764 33.6611 20.7382 33.7554C21.4297 34.3048 22.3117 34.5149 23.2481 34.5149H23.3053C24.6612 34.5149 25.6349 34.2762 26.7783 33.5473L26.8823 33.481C28.1264 32.6885 28.3324 31.4507 28.332 29.9757L28.3319 27.5231L29.4779 25.0688C30.4421 23.0036 30.651 20.7869 29.5171 18.8211Z" fill="#CE9DFF"/>
<path d="M30.1761 25.2706L29.8248 26.0228L29.0643 26.25L29.0302 27.7246V30.1769C29.0301 30.9028 28.8472 31.617 28.4982 32.2535C28.1492 32.89 27.6454 33.4282 27.0334 33.8186C26.9983 33.8403 26.964 33.8621 26.9289 33.8846C25.7855 34.6134 24.4577 35.0005 23.1017 35.0003H23.0448C22.5874 35.0003 22.1372 34.8866 21.7346 34.6693C21.3321 34.4521 20.9899 34.1381 20.7388 33.7558C24.8477 30.2763 27.5599 24.2844 27.5599 17.4767C27.5599 13.1221 26.4499 9.10106 24.5744 5.85811L24.6688 5.16857C24.7473 4.5935 25.238 4.16561 25.818 4.1648H25.8866C26.576 4.1644 27.2523 4.35308 27.8419 4.7103C28.4315 5.06753 28.9119 5.57961 29.2307 6.19084L29.2508 6.22929C29.657 7.00744 29.7163 7.91012 29.4179 8.72501L29.0355 9.77049L28.6335 10.1255L28.5302 11.1523L29.4964 12.4327C30.0403 13.153 30.3909 14.0003 30.515 14.8943C30.639 15.7883 30.5324 16.6992 30.2052 17.5403C30.1951 17.567 29.9887 18.097 29.8667 18.4104C29.8397 18.4795 29.8285 18.5539 29.834 18.6279C29.8395 18.702 29.8615 18.7738 29.8984 18.8383C30.4581 19.8092 30.7755 20.9008 30.8238 22.0205C30.8722 23.1402 30.65 24.255 30.1761 25.2706ZM9.87046 29.1831C10.1412 29.7093 10.5331 30.1636 11.0139 30.5087L11.5279 30.879L12.0971 29.7247L11.7445 29.4898C11.4255 29.2606 11.1654 28.9589 10.9855 28.6097C10.8268 28.3021 10.4489 28.1809 10.1414 28.3389C9.8329 28.4977 9.71169 28.8755 9.87046 29.1831ZM1.78901 9.77057C2.06235 10.5161 2.29471 11.1522 2.29471 11.1522L2.62736 10.7334C2.83044 10.4635 3.05731 10.2123 3.30522 9.98289C3.42695 9.86968 3.49876 9.71278 3.50488 9.54666C3.51099 9.38053 3.45091 9.21878 3.33783 9.09692C3.22463 8.97519 3.06772 8.90338 2.9016 8.89726C2.73548 8.89115 2.57372 8.95123 2.45187 9.06431C2.215 9.28427 1.99353 9.52024 1.78901 9.77057ZM1.79486 27.7246C1.72549 26.8989 2.35654 26.1408 3.06198 26.0263L3.09208 26.0212C3.43389 25.9661 3.66545 25.6443 3.61028 25.3024C3.55511 24.9605 3.23334 24.7282 2.89144 24.7834L2.86053 24.7884C2.06397 24.9188 1.3995 25.3818 1 26.023L1.79486 27.7246Z" fill="#8C2FEA"/>
<path d="M18.8797 9.41895V10.682C18.8797 11.2418 18.714 11.7892 18.4034 12.2551C18.0928 12.7209 17.6512 13.0844 17.1344 13.2997L15.5354 13.9657C15.4963 13.982 15.4544 13.9904 15.412 13.9904C15.3697 13.9904 15.3277 13.982 15.2886 13.9657L13.6897 13.2997C13.1728 13.0844 12.7313 12.7209 12.4207 12.2551C12.1101 11.7892 11.9443 11.2418 11.9443 10.682V9.41895H18.8797Z" fill="#C8E9EB"/>
<path d="M22.7527 9.09297C22.6854 9.58706 22.5038 9.9126 22.1086 10.2168C21.7531 10.4904 21.4996 10.9009 21.0809 10.74L21.0074 10.5521C20.4104 10.3226 19.7704 10.2856 19.2245 10.4524C18.6826 10.4839 18.1511 10.6144 17.6562 10.8374L15.517 11.8024C15.4838 11.8174 15.4478 11.8251 15.4114 11.8251C15.375 11.8251 15.339 11.8174 15.3058 11.8024L13.1666 10.8374C12.6306 10.5955 12.0519 10.4624 11.464 10.4457C10.8762 10.429 10.2909 10.529 9.74195 10.74C9.53606 10.8192 9.31329 10.8441 9.09501 10.8123C8.87674 10.7805 8.6703 10.6932 8.49552 10.5586L8.48268 10.5488C8.08748 10.2446 7.8281 9.79692 7.76076 9.30278L7.72524 9.04224L7.59955 8.28131C7.47031 7.49876 6.92175 6.85274 6.1701 6.59512C5.91714 6.50901 5.69747 6.34588 5.54192 6.1286C5.38637 5.91133 5.30273 5.65081 5.30273 5.38359V4.16296C5.30273 2.51092 6.46198 1.08559 8.07944 0.749021L11.5095 0.0352627C12.3475 -0.139095 13.1816 0.34821 13.4413 1.16379L14.6615 4.99668C14.7121 5.15588 14.8121 5.29485 14.9469 5.39347C15.0818 5.49209 15.2445 5.54524 15.4116 5.54524C15.5786 5.54524 15.7414 5.49209 15.8762 5.39347C16.0111 5.29485 16.111 5.15588 16.1617 4.99668L17.3819 1.16379C17.6415 0.34821 18.4757 -0.139095 19.3136 0.0352627L21.8458 0.5622L22.4396 1.11132C24.057 1.44789 25.2163 2.87322 25.2163 4.52526V5.08828C25.2163 5.3555 25.1327 5.61602 24.9771 5.83329C24.8216 6.05057 24.6019 6.2137 24.3489 6.29981C23.5981 6.55543 23.0434 7.28888 22.9141 8.0715L22.7885 8.83243L22.7527 9.09297Z" fill="#EAF6F8"/>
<path d="M25.5204 4.16277V5.38315C25.5205 5.65037 25.4369 5.91089 25.2813 6.12816C25.1257 6.34543 24.9061 6.50853 24.6531 6.59456C24.2845 6.71983 23.9569 6.9431 23.7056 7.2404C23.4536 7.53718 23.2869 7.89686 23.2234 8.281L23.0976 9.04174L23.0623 9.30235C22.9949 9.79656 22.7354 10.2443 22.3401 10.5484L22.3278 10.5587C22.153 10.6932 21.9465 10.7805 21.7282 10.8122C21.5099 10.8439 21.2871 10.8189 21.0812 10.7397C20.5721 10.544 20.0313 10.4436 19.4859 10.4438C19.3987 10.4437 19.3116 10.4464 19.2246 10.4521C20.8314 9.12325 21.8457 7.17366 21.8457 4.99998V0.562012L22.7438 0.748833C24.361 1.08521 25.5204 2.51036 25.5204 4.16277Z" fill="#C8E9EB"/>
<path d="M4.40897 23.8249C5.32951 23.8249 6.07576 23.0787 6.07576 22.1581C6.07576 21.2376 5.32951 20.4913 4.40897 20.4913C3.48843 20.4913 2.74219 21.2376 2.74219 22.1581C2.74219 23.0787 3.48843 23.8249 4.40897 23.8249Z" fill="#8C2FEA"/>
<path d="M15.4099 27.0929C16.3305 27.0929 17.0767 26.3466 17.0767 25.4261C17.0767 24.5055 16.3305 23.7593 15.4099 23.7593C14.4894 23.7593 13.7432 24.5055 13.7432 25.4261C13.7432 26.3466 14.4894 27.0929 15.4099 27.0929Z" fill="#8C2FEA"/>
<path d="M4.40984 16.7136C5.05687 16.7136 5.58139 16.1891 5.58139 15.542C5.58139 14.895 5.05687 14.3705 4.40984 14.3705C3.7628 14.3705 3.23828 14.895 3.23828 15.542C3.23828 16.1891 3.7628 16.7136 4.40984 16.7136Z" fill="#8C2FEA"/>
<path d="M7.03581 32.0682C7.68284 32.0682 8.20737 31.5437 8.20737 30.8967C8.20737 30.2496 7.68284 29.7251 7.03581 29.7251C6.38878 29.7251 5.86426 30.2496 5.86426 30.8967C5.86426 31.5437 6.38878 32.0682 7.03581 32.0682Z" fill="#8C2FEA"/>
<path d="M23.7878 32.0682C24.4348 32.0682 24.9593 31.5437 24.9593 30.8967C24.9593 30.2496 24.4348 29.7251 23.7878 29.7251C23.1407 29.7251 22.6162 30.2496 22.6162 30.8967C22.6162 31.5437 23.1407 32.0682 23.7878 32.0682Z" fill="#8C2FEA"/>
<path d="M10.0339 23.973C10.6809 23.973 11.2054 23.4485 11.2054 22.8014C11.2054 22.1544 10.6809 21.6299 10.0339 21.6299C9.38683 21.6299 8.8623 22.1544 8.8623 22.8014C8.8623 23.4485 9.38683 23.973 10.0339 23.973Z" fill="#8C2FEA"/>
<path d="M26.4129 23.3231C27.3334 23.3231 28.0797 22.5768 28.0797 21.6563C28.0797 20.7357 27.3334 19.9895 26.4129 19.9895C25.4923 19.9895 24.7461 20.7357 24.7461 21.6563C24.7461 22.5768 25.4923 23.3231 26.4129 23.3231Z" fill="#8C2FEA"/>
<path d="M26.2458 15.8779C26.8928 15.8779 27.4173 15.3534 27.4173 14.7063C27.4173 14.0593 26.8928 13.5348 26.2458 13.5348C25.5987 13.5348 25.0742 14.0593 25.0742 14.7063C25.0742 15.3534 25.5987 15.8779 26.2458 15.8779Z" fill="#8C2FEA"/>
<path d="M20.7887 23.973C21.4358 23.973 21.9603 23.4485 21.9603 22.8014C21.9603 22.1544 21.4358 21.6299 20.7887 21.6299C20.1417 21.6299 19.6172 22.1544 19.6172 22.8014C19.6172 23.4485 20.1417 23.973 20.7887 23.973Z" fill="#8C2FEA"/>
<path d="M24.9602 30.895C24.9602 31.5427 24.4362 32.0668 23.7892 32.0668C23.6069 32.0671 23.427 32.0246 23.264 31.9429C23.101 31.8612 22.9594 31.7425 22.8506 31.5962C23.3153 31.0287 23.7516 30.4227 24.157 29.7833C24.6234 29.9371 24.9602 30.3768 24.9602 30.895ZM28.0803 21.655C28.0803 22.4131 27.5755 23.0525 26.8825 23.2548C27.116 22.2855 27.2888 21.3027 27.3999 20.3119C27.8128 20.6153 28.0803 21.1042 28.0803 21.655Z" fill="#8C2FEA"/>
<path d="M20.9532 29.183C20.6825 29.7092 20.2906 30.1636 19.8098 30.5086L19.2958 30.8789L18.7266 29.7247L19.0792 29.4898C19.3982 29.2605 19.6583 28.9589 19.8382 28.6097C19.9969 28.3021 20.3748 28.1809 20.6823 28.3388C20.9908 28.4977 21.112 28.8754 20.9532 29.183Z" fill="#8C2FEA"/>
<path d="M29.0374 9.77082C28.7641 10.5163 28.5317 11.1524 28.5317 11.1524L28.1991 10.7337C27.996 10.4638 27.7691 10.2126 27.5212 9.98314C27.3995 9.86994 27.3276 9.71303 27.3215 9.54691C27.3154 9.38079 27.3755 9.21903 27.4886 9.09718C27.6018 8.97545 27.7587 8.90364 27.9248 8.89752C28.0909 8.8914 28.2527 8.95148 28.3745 9.06456C28.6114 9.28452 28.8329 9.5205 29.0374 9.77082ZM29.0316 27.7249C29.1009 26.8991 28.4699 26.141 27.7644 26.0265L27.7343 26.0215C27.3925 25.9663 27.161 25.6446 27.2161 25.3027C27.2713 24.9608 27.5931 24.7285 27.935 24.7837L27.9659 24.7887C28.7624 24.9191 29.4269 25.3821 29.8264 26.0232L29.0316 27.7249Z" fill="#8C2FEA"/>
<path d="M22.4871 19.9799C22.395 19.98 22.304 19.9598 22.2206 19.9208C22.1372 19.8818 22.0634 19.8248 22.0045 19.754C21.9456 19.6832 21.903 19.6003 21.8797 19.5112C21.8565 19.4221 21.8532 19.3289 21.8701 19.2384C21.9821 18.636 22.322 18.1134 22.8271 17.7667C23.3322 17.4199 23.9421 17.2908 24.5445 17.4029C24.8849 17.4662 25.1094 17.7935 25.0462 18.1338C24.9829 18.4742 24.656 18.6996 24.3152 18.6354C24.1809 18.61 24.043 18.6116 23.9093 18.6399C23.7757 18.6682 23.649 18.7227 23.5365 18.8003C23.4237 18.8773 23.3273 18.976 23.2528 19.0905C23.1783 19.205 23.1273 19.3331 23.1026 19.4675C23.0759 19.6113 22.9998 19.7412 22.8874 19.8348C22.7749 19.9284 22.6333 19.9797 22.4871 19.9799ZM24.9685 27.5219C24.8862 27.522 24.8046 27.5058 24.7286 27.4743C24.6525 27.4428 24.5834 27.3965 24.5253 27.3382C24.3289 27.1418 24.0677 27.0337 23.79 27.0337C23.5123 27.0337 23.2511 27.1418 23.0548 27.3382C22.9366 27.453 22.7781 27.5167 22.6134 27.5155C22.4487 27.5144 22.2911 27.4484 22.1746 27.3319C22.0581 27.2155 21.9922 27.0579 21.991 26.8932C21.9898 26.7285 22.0535 26.5699 22.1682 26.4518C22.6014 26.0185 23.1774 25.7799 23.79 25.7799C24.4026 25.7799 24.9787 26.0185 25.4118 26.4518C25.4995 26.5394 25.5592 26.6511 25.5834 26.7728C25.6076 26.8944 25.5952 27.0204 25.5478 27.135C25.5003 27.2495 25.42 27.3474 25.3168 27.4163C25.2137 27.4852 25.0925 27.5219 24.9685 27.5219ZM8.33895 19.9799C8.19268 19.9797 8.05108 19.9284 7.93866 19.8349C7.82623 19.7413 7.75006 19.6114 7.72331 19.4676C7.67252 19.1946 7.51837 18.9576 7.28942 18.8004C7.06046 18.6433 6.78396 18.5848 6.51079 18.6355C6.17003 18.6988 5.84315 18.4743 5.77978 18.1339C5.71642 17.7936 5.94099 17.4663 6.28143 17.403C6.88359 17.2907 7.49363 17.42 7.99884 17.7668C8.50397 18.1135 8.84384 18.636 8.95588 19.2384C8.97272 19.329 8.96941 19.4221 8.94618 19.5112C8.92295 19.6003 8.88037 19.6832 8.82147 19.754C8.76258 19.8248 8.6888 19.8817 8.60541 19.9208C8.52201 19.9598 8.43103 19.98 8.33895 19.9799ZM8.21465 27.5219C8.1323 27.522 8.05075 27.5058 7.97467 27.4743C7.89859 27.4428 7.82949 27.3965 7.77134 27.3382C7.67502 27.2414 7.56045 27.1646 7.43424 27.1123C7.30804 27.06 7.17272 27.0333 7.03612 27.0337C6.89951 27.0333 6.76417 27.06 6.63796 27.1123C6.51174 27.1646 6.39715 27.2414 6.30082 27.3382C6.18284 27.4537 6.02406 27.518 5.85896 27.5172C5.69386 27.5163 5.53577 27.4503 5.41901 27.3336C5.30225 27.2169 5.23626 27.0588 5.23536 26.8937C5.23446 26.7286 5.29873 26.5698 5.4142 26.4518C5.84745 26.0185 6.42341 25.7799 7.03604 25.7799C7.64867 25.7799 8.22463 26.0185 8.6578 26.4518C8.74548 26.5394 8.8052 26.6511 8.8294 26.7727C8.85361 26.8943 8.84121 27.0204 8.79377 27.1349C8.74634 27.2495 8.666 27.3474 8.56292 27.4163C8.45983 27.4851 8.33863 27.5219 8.21465 27.5219Z" fill="#8C2FEA"/>
</svg>
