<svg width="46" height="44" viewBox="0 0 46 44" fill="none" xmlns="http://www.w3.org/2000/svg">
<path d="M39.2539 0.34082L44.6807 5.64355V38.3555L39.2539 43.6592H5.76758L0.34082 38.3555V5.64355L5.76758 0.34082H39.2539Z" fill="url(#paint0_linear_40_292)" fill-opacity="0.4" stroke="url(#paint1_linear_40_292)" stroke-width="0.682445"/>
<path d="M0.348877 30.9375L0.348877 38.5L5.62489 43.6562H12.6596" stroke="#00C4C4" stroke-width="0.682445"/>
<path d="M45.02 0H41.5027L45.02 3.4375V0Z" fill="#00C4C4"/>
<path d="M28.3076 6.06704C28.984 5.9325 29.6852 6.0014 30.3223 6.26528C30.9594 6.52917 31.5038 6.97616 31.8867 7.54946C32.2699 8.1227 32.4745 8.79657 32.4746 9.48598C32.4736 10.4104 32.1058 11.2972 31.4521 11.9508C30.9023 12.5008 30.1873 12.847 29.4238 12.944V15.1569C29.6091 15.2085 29.7868 15.2829 29.9512 15.3795C30.2615 15.5619 30.5149 15.8154 30.6855 16.1149C30.8179 16.3169 30.9239 16.5323 31.0029 16.7565C31.0851 16.999 31.1389 17.2487 31.165 17.5016C31.1763 17.616 31.1846 17.7305 31.1846 17.8483C31.1846 17.9661 31.1763 18.0807 31.165 18.195C31.1435 18.4387 31.0919 18.6798 31.0107 18.9127C30.9331 19.1472 30.8241 19.3721 30.6855 19.5817C30.5148 19.8811 30.2615 20.1347 29.9512 20.317C29.7868 20.4136 29.609 20.4871 29.4238 20.5387V23.2028C29.4231 23.896 29.1474 24.5612 28.6572 25.0514C28.1671 25.5413 27.5026 25.8172 26.8096 25.818C26.1163 25.8173 25.4512 25.5415 24.9609 25.0514C24.4707 24.5612 24.1951 23.896 24.1943 23.2028V14.486C24.1943 14.3704 24.1481 14.2591 24.0664 14.1774C23.9848 14.096 23.8741 14.0505 23.7588 14.0504C23.6433 14.0504 23.5319 14.0958 23.4502 14.1774C23.3685 14.2591 23.3223 14.3704 23.3223 14.486V17.9723C23.3223 18.4346 23.1394 18.8788 22.8125 19.2057C22.4856 19.5326 22.0415 19.7165 21.5791 19.7165H19.084V23.1969C19.0839 23.4757 18.8784 23.7017 18.625 23.7018H17.5664V27.2604C17.5671 27.4914 17.6592 27.7126 17.8223 27.8756C17.9856 28.039 18.2075 28.1318 18.4385 28.1325H26.9766C27.1685 28.1324 27.3584 28.0899 27.5322 28.0084C27.7061 27.9273 27.8603 27.8082 27.9834 27.6608L29.3779 25.9879C29.5011 25.8408 29.6551 25.7218 29.8291 25.6403C30.003 25.5592 30.1929 25.5169 30.3848 25.5172H31.9492C32.1802 25.5177 32.4011 25.6099 32.5645 25.7731C32.7274 25.9364 32.8195 26.1576 32.8203 26.3883V26.3903H32.8213V27.2604H34.1279C34.3591 27.2604 34.5807 27.3525 34.7441 27.5163C34.9075 27.6797 35 27.9013 35 28.1325C34.9999 28.3635 34.9075 28.5854 34.7441 28.7487C34.5808 28.9122 34.3589 29.0036 34.1279 29.0036C34.2549 29.0036 34.3801 29.032 34.4951 29.0856C34.6102 29.1389 34.713 29.2171 34.7949 29.3141C34.8766 29.411 34.9356 29.5249 34.9688 29.6471C35.0019 29.7695 35.0088 29.8983 34.9873 30.0231C34.945 30.231 34.8309 30.4181 34.665 30.5504C34.4992 30.6827 34.2921 30.752 34.0801 30.7467H33.6924C33.8194 30.7467 33.9445 30.7751 34.0596 30.8288C34.175 30.8824 34.2769 30.9602 34.3584 31.0573C34.4403 31.1547 34.5 31.2684 34.5332 31.3913C34.5663 31.5137 34.5723 31.642 34.5508 31.7672C34.5084 31.9749 34.3952 32.1613 34.2295 32.2936C34.0637 32.4259 33.8566 32.4948 33.6445 32.4899H33.2568C33.3838 32.4899 33.5091 32.5183 33.624 32.5719C33.7393 32.6256 33.8414 32.7034 33.9229 32.8004C34.0047 32.8975 34.0645 33.012 34.0977 33.1344C34.1307 33.2568 34.1367 33.3852 34.1152 33.5104C34.0732 33.7179 33.9588 33.9048 33.793 34.0368C33.6275 34.169 33.42 34.239 33.208 34.234H29.2949C29.0365 34.2323 28.7842 34.1557 28.5674 34.0153L27.9219 33.5797C27.7051 33.4394 27.4527 33.3638 27.1943 33.362H14.9521C12.5451 33.362 10.5938 31.4105 10.5938 29.0036V23.7018H9.45898C9.20549 23.7018 9.00003 23.4757 9 23.1969H9.69141L9 23.1745V14.7184C9.00014 14.3587 9.20409 14.067 9.45508 14.067H10.5938V12.443C10.5938 11.5183 10.9604 10.6311 11.6143 9.97719C12.2681 9.32333 13.1553 8.95669 14.0801 8.95669C15.0048 8.95669 15.892 9.32333 16.5459 9.97719C17.1998 10.6311 17.5664 11.5183 17.5664 12.443V14.067H18.5312V14.1041C18.7805 14.1172 19.084 14.3198 19.084 14.5895V18.8444H21.5791C21.8101 18.8444 22.0319 18.7527 22.1953 18.5895C22.3588 18.426 22.4512 18.2035 22.4512 17.9723V14.486C22.4512 14.1393 22.5888 13.8064 22.834 13.5612C23.0791 13.3161 23.4121 13.1784 23.7588 13.1784C24.1053 13.1784 24.4375 13.3163 24.6826 13.5612C24.9278 13.8064 25.0664 14.1393 25.0664 14.486V23.2028C25.0664 23.665 25.2494 24.1084 25.5762 24.4352C25.9031 24.7624 26.3472 24.9459 26.8096 24.9459C27.2718 24.9459 27.7151 24.7623 28.042 24.4352C28.3689 24.1084 28.5527 23.6651 28.5527 23.2028V20.5739C28.3149 20.5242 28.0868 20.4386 27.8799 20.317C27.5696 20.1347 27.3162 19.8811 27.1455 19.5817C27.0071 19.3721 26.8977 19.1472 26.8203 18.9127C26.739 18.6798 26.6877 18.4387 26.666 18.195C26.6547 18.0807 26.6465 17.9661 26.6465 17.8483C26.6465 17.7305 26.6547 17.616 26.666 17.5016C26.6921 17.2487 26.7461 16.999 26.8281 16.7565C26.9072 16.5322 27.0132 16.3169 27.1455 16.1149C27.3162 15.8154 27.5695 15.5619 27.8799 15.3795C28.0869 15.2579 28.3147 15.1704 28.5527 15.1207V12.943C28.0174 12.8756 27.5027 12.6873 27.0508 12.3854C26.4775 12.0023 26.0305 11.4579 25.7666 10.8209C25.5027 10.1839 25.4338 9.48262 25.5684 8.8063C25.7029 8.12997 26.0349 7.50874 26.5225 7.02114C27.0101 6.53351 27.6313 6.20158 28.3076 6.06704ZM28.9883 6.87173C28.645 6.87173 28.3045 6.93867 27.9873 7.06997C27.6701 7.2014 27.3815 7.3945 27.1387 7.63735C26.8959 7.88016 26.7037 8.16872 26.5723 8.48598C26.4409 8.80307 26.3731 9.14276 26.373 9.48598C26.373 9.82938 26.4408 10.1697 26.5723 10.487C26.7037 10.8042 26.8959 11.0927 27.1387 11.3356C27.3815 11.5784 27.6701 11.7706 27.9873 11.902C28.3046 12.0334 28.6449 12.1012 28.9883 12.1012C29.6816 12.1011 30.3467 11.8259 30.8369 11.3356C31.3275 10.8452 31.6025 10.1795 31.6025 9.48598C31.6024 8.79262 31.3274 8.12764 30.8369 7.63735C30.3467 7.14704 29.6816 6.87185 28.9883 6.87173ZM29.4258 8.60903C29.4836 8.60858 29.5412 8.61938 29.5947 8.64126C29.6482 8.66316 29.6964 8.69613 29.7373 8.73696C29.7782 8.7779 29.8111 8.82698 29.833 8.88051C29.8547 8.93381 29.8657 8.99093 29.8652 9.04848C29.8647 9.10633 29.8529 9.16424 29.8301 9.21743C29.8072 9.27054 29.774 9.31886 29.7324 9.35903L28.8945 10.1745C28.8129 10.256 28.7023 10.3022 28.5869 10.3024C28.5008 10.3024 28.4164 10.276 28.3447 10.2282C28.2731 10.1803 28.2166 10.1125 28.1836 10.0329C28.1507 9.95328 28.1424 9.86541 28.1592 9.78091C28.176 9.69654 28.2175 9.61912 28.2783 9.55825L29.1162 8.74184C29.1563 8.70049 29.2039 8.66693 29.2568 8.64419C29.31 8.62135 29.3679 8.60952 29.4258 8.60903Z" fill="#0091A5"/>
<defs>
<linearGradient id="paint0_linear_40_292" x1="22.511" y1="0" x2="22.511" y2="44" gradientUnits="userSpaceOnUse">
<stop stop-color="#00C4C4"/>
<stop offset="1" stop-color="#00C4C4" stop-opacity="0.6"/>
</linearGradient>
<linearGradient id="paint1_linear_40_292" x1="0" y1="0" x2="43.9884" y2="45.0101" gradientUnits="userSpaceOnUse">
<stop offset="0.18971" stop-color="#00C4C4"/>
<stop offset="0.497724" stop-color="#00C4C4"/>
<stop offset="0.791148" stop-color="#00C4C4"/>
</linearGradient>
</defs>
</svg>
