<svg width="88" height="87" viewBox="0 0 88 87" fill="none" xmlns="http://www.w3.org/2000/svg">
  <path d="M50.8201 33.7109C50.1302 35.2776 49.2823 36.7542 48.2848 38.1136C47.2063 39.5834 46.5836 41.3051 46.4199 43.0719L47.2714 44.7712H66.7951L68.3264 43.0719C63.8565 38.1311 57.7289 34.7177 50.8201 33.7109Z" fill="#FDE9E2"></path>
  <path d="M46.4207 43.0713C46.2168 45.2714 46.7255 47.5419 47.961 49.4841C48.9941 51.1086 49.8369 52.8248 50.4894 54.5937C58.7646 55.1323 65.3117 62.0159 65.3117 70.427V85.3003C65.3117 86.2388 66.0725 86.9995 67.011 86.9995H74.2088C75.1473 86.9995 75.9081 86.2388 75.9081 85.3003V62.7567C75.9081 55.1825 73.0382 48.2785 68.3272 43.0713H46.4207Z" fill="#FCD9CA"></path>
  <path d="M47.8709 40.6115C48.1512 39.9023 48.5211 39.2318 48.9715 38.6164C51.7242 34.8663 53.3759 30.2648 53.748 25.3082C54.7301 12.2548 46.6521 0 31.7669 0C10.4232 0 0.528801 21.4841 0.501953 43.0718L2.6117 44.771H43.3986L45.7797 43.0718L47.8709 40.6115Z" fill="#FF8381"></path>
  <path d="M47.377 45.7086L45.7341 43.1235L45.7784 43.0713H0.50068C0.50051 43.1007 0.5 43.1303 0.5 43.1596C0.5 64.9912 10.5441 86.3198 31.7656 86.3198C50.6592 86.3198 58.6507 64.7023 48.6779 49.0271C48.034 48.0154 47.5922 46.8884 47.377 45.7086Z" fill="#FF5955"></path>
  <path d="M56.7441 48.1689C58.1518 48.1689 59.293 47.0278 59.293 45.6201C59.293 44.2124 58.1518 43.0713 56.7441 43.0713C55.3365 43.0713 54.1953 44.2124 54.1953 45.6201C54.1953 47.0278 55.3365 48.1689 56.7441 48.1689Z" fill="#FF2B26"></path>
  <path d="M87.466 37.3323C87.2327 35.9442 85.9185 35.0077 84.5301 35.241L81.8715 35.6877L82.491 33.0528C82.9068 31.2835 81.3843 29.6535 79.5875 29.9558L73.1477 31.0375C71.7594 31.2708 70.8231 32.5851 71.0563 33.9734C71.2896 35.3617 72.6044 36.2978 73.9922 36.0648L76.6513 35.6181L76.0318 38.2534C75.616 40.0223 77.1386 41.6529 78.9354 41.3502L85.3749 40.2682C86.763 40.0349 87.6993 38.7205 87.466 37.3323ZM75.2883 23.0989C76.2018 22.0279 76.0742 20.4191 75.0031 19.5057C73.9322 18.5922 72.3232 18.72 71.4099 19.791L69.6604 21.8422L68.4412 19.4255C67.6225 17.803 65.4093 17.533 64.2264 18.9193L59.9886 23.8874C59.0751 24.9584 59.2027 26.5672 60.2735 27.4807C61.3446 28.3944 62.9534 28.2666 63.8669 27.1957L65.6167 25.1443L66.8361 27.5612C67.6541 29.1828 69.8678 29.4543 71.051 28.0673L75.2883 23.0989Z" fill="#FF8381"></path>
  <path d="M47.8687 40.6116H44.6979C40.0964 40.6116 36.353 36.8682 36.353 32.2668V29.9252C40.7455 28.7936 43.9995 24.8004 43.9995 20.0596C43.9995 18.6526 42.8577 17.5107 41.4507 17.5107C40.0438 17.5107 38.9019 18.6526 38.9019 20.0596C38.9019 22.865 36.6181 25.1487 33.7957 25.1487C30.9903 25.1487 28.7066 22.865 28.7066 20.0596C28.7066 18.6526 27.5647 17.5107 26.1577 17.5107C24.7508 17.5107 23.6089 18.6526 23.6089 20.0596C23.6089 24.7953 26.8578 28.7885 31.2554 29.9235V32.2668C31.2554 35.4188 32.348 38.3177 34.1713 40.6116H25.9368C24.8323 36.1784 20.8205 32.8836 16.0508 32.8836C14.6438 32.8836 13.502 34.0254 13.502 35.4324C13.502 36.8411 14.6438 37.9812 16.0508 37.9812C18.8579 37.9812 21.1416 40.265 21.1416 43.0721L23.6845 44.7713H45.7779L47.2715 43.0721C47.3562 42.2283 47.5572 41.4003 47.8687 40.6116Z" fill="#FF5955"></path>
  <path d="M47.2716 43.0713H21.1416V43.0883C21.1416 45.8937 18.8579 48.1774 16.0508 48.1774C14.6438 48.1774 13.502 49.3176 13.502 50.7263C13.502 52.1332 14.6438 53.2751 16.0508 53.2751C20.7627 53.2751 24.7355 50.0585 25.8944 45.7085H34.1713C32.348 48.0024 31.2554 50.9013 31.2554 54.0533V56.3949C26.8629 57.5265 23.6089 61.5197 23.6089 66.2605C23.6089 67.6675 24.7508 68.8094 26.1577 68.8094C27.5647 68.8094 28.7066 67.6675 28.7066 66.2605C28.7066 63.4551 30.9903 61.1714 33.8127 61.1714C36.6181 61.1714 38.9019 63.4551 38.9019 66.2605C38.9019 67.6675 40.0438 68.8094 41.4507 68.8094C42.8577 68.8094 43.9995 67.6675 43.9995 66.2605C43.9995 61.5248 40.7506 57.5316 36.3531 56.3966V54.0533C36.3531 49.4519 40.0964 45.7085 44.6979 45.7085H47.3776C47.2179 44.8388 47.1822 43.9509 47.2716 43.0713Z" fill="#FF2B26"></path>
</svg>