<svg width="39" height="30" viewBox="0 0 39 30" fill="none" xmlns="http://www.w3.org/2000/svg">
  <path d="M38.9486 14.5715C35.0251 5.84987 27.7968 0 19.5283 0V29.6254C27.7968 29.6254 35.0251 23.7754 38.9486 15.0539C38.9668 15.0132 38.9802 14.9705 38.9887 14.9268V14.6986C38.9802 14.6548 38.9668 14.6122 38.9486 14.5715Z" fill="#94AFF6"></path>
  <path d="M36.2765 14.8127C32.9331 5.95784 26.6847 0 19.5276 0C11.1831 0 3.89806 5.95784 0 14.8127C3.89806 23.6675 11.1831 29.6254 19.5276 29.6254C26.6847 29.6254 32.9331 23.6675 36.2765 14.8127Z" fill="#94AFF6"></path>
  <path d="M38.9887 14.6988C35.0746 8.02105 27.8255 3.53638 19.5283 3.53638V26.0894C27.8255 26.0894 35.0746 21.6047 38.9887 14.927C39.0036 14.8516 39.0036 14.7741 38.9887 14.6988Z" fill="#94AFF6"></path>
  <path d="M29.762 8.67704C26.674 6.85598 23.1352 5.89343 19.5283 5.89343V23.7315C23.1352 23.7315 26.6741 22.769 29.762 20.9479C32.3626 19.4142 34.5931 17.3097 36.2771 14.8125C34.5932 12.3152 32.3626 10.2107 29.762 8.67704Z" fill="white"></path>
  <path d="M33.9195 14.8125C32.4726 12.3152 30.556 10.2106 28.3213 8.67704C25.668 6.85598 22.6273 5.89343 19.5281 5.89343C15.9212 5.89343 12.3823 6.85598 9.29444 8.67704C6.69378 10.2107 4.46331 12.3152 2.7793 14.8125C4.46331 17.3097 6.69378 19.4143 9.29444 20.9479C12.3824 22.769 15.9212 23.7315 19.5281 23.7315C22.6274 23.7315 25.6681 22.769 28.3213 20.9479C30.556 19.4143 32.4726 17.3098 33.9195 14.8125Z" fill="white"></path>
  <path d="M19.4688 5.92493V23.763C24.3946 23.763 28.3878 19.7698 28.3878 14.844C28.3878 9.91815 24.3946 5.92493 19.4688 5.92493Z" fill="#94AFF6"></path>
  <path d="M26.09 14.8125C26.09 9.88665 23.1523 5.89343 19.5284 5.89343C14.6026 5.89343 10.6094 9.88665 10.6094 14.8125C10.6094 19.7383 14.6026 23.7315 19.5284 23.7315C23.1523 23.7315 26.09 19.7384 26.09 14.8125Z" fill="#94AFF7"></path>
  <circle cx="19.4685" cy="15.2362" r="4.2322" fill="#1038A0"></circle>
</svg>