<svg width="35" height="34" viewBox="0 0 35 34" fill="none" xmlns="http://www.w3.org/2000/svg">
<path d="M17.4038 32.4579C13.9423 35.0398 9.13506 34.3854 5.20074 30.451C1.96412 27.2144 0.203409 24.3618 0.74269 21.4683C1.18998 19.0686 3.23521 18.3489 5.03972 17.7369C7.34158 16.9561 7.169 14.5771 9.70592 13.8754C12.2318 13.1768 15.1156 14.5031 18.1321 17.5196C23.9586 23.3461 21.2591 29.5823 17.4038 32.4579Z" fill="#26BB62"/>
<path d="M12.3706 6.37362L15.3173 1.26987C16.0184 0.0555198 17.5712 -0.360524 18.7855 0.340582C20.0005 1.04169 20.4159 2.59458 19.7148 3.80873L16.7681 8.91247C16.067 10.1268 14.5142 10.5429 13.2999 9.84176C12.0803 9.13792 11.6726 7.58263 12.3706 6.37362Z" fill="#26BB62"/>
<path d="M24.324 20.4382C23.6229 19.2238 24.039 17.6711 25.2533 16.97L30.3724 14.0145C31.5867 13.3134 33.1393 13.7291 33.8406 14.9437C34.5417 16.1581 34.1256 17.7108 32.9113 18.4119L27.7921 21.3675C26.5834 22.0654 25.028 21.6579 24.324 20.4382Z" fill="#26BB62"/>
<path d="M24.8838 27.7402C24.7617 26.3434 25.795 25.1119 27.1918 24.9896L30.7591 24.6775C32.1559 24.5554 33.3874 25.5887 33.5097 26.9855C33.6318 28.3823 32.5985 29.6138 31.2017 29.7361L27.6343 30.0482C26.2443 30.1698 25.0066 29.1434 24.8838 27.7402Z" fill="#26BB62"/>
<path d="M19.6499 14.1525C18.6584 13.161 18.6584 11.5535 19.6499 10.562L24.9577 5.25413C25.9492 4.26262 27.5568 4.26262 28.5482 5.25413C29.5397 6.24564 29.5397 7.8532 28.5482 8.84471L23.2404 14.1525C22.249 15.144 20.6413 15.144 19.6499 14.1525Z" fill="#26BB62"/>
<path d="M1.17584e-08 11.1899V7.42631C1.17584e-08 6.02409 1.13664 4.88745 2.53886 4.88745C3.94107 4.88732 5.07784 6.02409 5.07771 7.42631V11.1899C5.07771 12.5921 3.94107 13.7288 2.53886 13.7288C1.13684 13.7289 -0.000133507 12.5922 1.17584e-08 11.1899Z" fill="#26BB62"/>
<path d="M11.6618 21.5064C11.5628 21.5064 11.466 21.4771 11.3836 21.422C11.3013 21.367 11.2371 21.2888 11.1992 21.1974C11.1613 21.1059 11.1514 21.0052 11.1707 20.9081C11.19 20.8109 11.2377 20.7217 11.3077 20.6517C11.3493 20.6104 11.3822 20.5612 11.4047 20.5071C11.4271 20.453 11.4385 20.3949 11.4384 20.3363C11.4385 20.2777 11.4271 20.2197 11.4046 20.1655C11.3822 20.1114 11.3493 20.0623 11.3077 20.021C11.2664 19.9794 11.2173 19.9464 11.1632 19.924C11.109 19.9016 11.051 19.8901 10.9924 19.8903C10.9338 19.8901 10.8758 19.9016 10.8216 19.924C10.7675 19.9464 10.7183 19.9794 10.677 20.021C10.6305 20.0674 10.5753 20.1043 10.5146 20.1295C10.4538 20.1547 10.3887 20.1676 10.323 20.1676C10.2572 20.1676 10.1921 20.1547 10.1314 20.1295C10.0706 20.1043 10.0154 20.0674 9.96892 20.021C9.92243 19.9745 9.88554 19.9193 9.86038 19.8585C9.83522 19.7978 9.82227 19.7326 9.82227 19.6669C9.82227 19.6011 9.83522 19.536 9.86038 19.4753C9.88554 19.4145 9.92243 19.3593 9.96892 19.3128C10.2424 19.0395 10.6058 18.8889 10.9924 18.8889C11.379 18.8889 11.7424 19.0395 12.0158 19.3129C12.2892 19.5863 12.4397 19.9497 12.4397 20.3363C12.4397 20.7229 12.2892 21.0864 12.0158 21.3598C11.9694 21.4063 11.9142 21.4433 11.8534 21.4684C11.7927 21.4936 11.7276 21.5065 11.6618 21.5064ZM17.6456 27.4902C17.5799 27.4903 17.5147 27.4774 17.454 27.4522C17.3932 27.4271 17.3381 27.3901 17.2916 27.3436C17.2451 27.2971 17.2082 27.2419 17.183 27.1812C17.1579 27.1204 17.1449 27.0553 17.1449 26.9896C17.1449 26.9238 17.1578 26.8587 17.183 26.798C17.2082 26.7372 17.245 26.682 17.2915 26.6355C17.375 26.5518 17.4219 26.4384 17.4219 26.3201C17.4219 26.2019 17.375 26.0885 17.2915 26.0048C17.2072 25.9205 17.0953 25.8741 16.9762 25.8741C16.8571 25.8741 16.7451 25.9205 16.6608 26.0048C16.5669 26.0987 16.4395 26.1514 16.3067 26.1514C16.1739 26.1514 16.0466 26.0987 15.9527 26.0048C15.8588 25.9109 15.806 25.7835 15.806 25.6507C15.806 25.5179 15.8588 25.3906 15.9527 25.2967C16.2261 25.0233 16.5896 24.8727 16.9762 24.8727C17.3628 24.8727 17.7262 25.0233 17.9996 25.2967C18.5638 25.861 18.5639 26.7793 17.9997 27.3436C17.9532 27.3901 17.898 27.427 17.8373 27.4522C17.7765 27.4773 17.7114 27.4903 17.6456 27.4902ZM13.8203 25.3244C13.5797 25.3245 13.3413 25.2772 13.119 25.1852C12.8966 25.0932 12.6945 24.9582 12.5243 24.7881C12.3392 24.6029 12.1959 24.3801 12.1041 24.1348C12.0124 23.8895 11.9742 23.6274 11.9923 23.3661C11.9968 23.3005 12.0141 23.2364 12.0434 23.1775C12.0726 23.1186 12.1132 23.066 12.1628 23.0228C12.2124 22.9796 12.27 22.9466 12.3324 22.9257C12.3947 22.9048 12.4606 22.8964 12.5262 22.9009C12.5918 22.9055 12.6559 22.9228 12.7147 22.9521C12.7736 22.9814 12.8262 23.022 12.8694 23.0715C12.9126 23.1211 12.9456 23.1787 12.9665 23.241C12.9874 23.3034 12.9959 23.3692 12.9914 23.4348C12.9831 23.5533 13.0004 23.6722 13.042 23.7835C13.0835 23.8948 13.1485 23.9959 13.2324 24.0799C13.3166 24.1638 13.4177 24.2288 13.529 24.2703C13.6403 24.3119 13.7592 24.3292 13.8777 24.3211C14.1517 24.303 14.3926 24.5104 14.4115 24.7864C14.416 24.852 14.4075 24.9178 14.3866 24.9801C14.3656 25.0425 14.3326 25.1 14.2894 25.1496C14.2462 25.1992 14.1936 25.2397 14.1347 25.269C14.0758 25.2982 14.0118 25.3156 13.9462 25.3201C13.9042 25.323 13.8622 25.3244 13.8203 25.3244Z" fill="#187102"/>
</svg>
