<svg width="46" height="44" viewBox="0 0 46 44" fill="none" xmlns="http://www.w3.org/2000/svg">
<path d="M39.2539 0.34082L44.6807 5.64355V38.3555L39.2539 43.6592H5.76758L0.34082 38.3555V5.64355L5.76758 0.34082H39.2539Z" fill="url(#paint0_linear_41_325)" fill-opacity="0.4" stroke="url(#paint1_linear_41_325)" stroke-width="0.682445"/>
<path d="M0.348877 30.9375L0.348877 38.5L5.62489 43.6562H12.6596" stroke="#00C4C4" stroke-width="0.682445"/>
<path d="M45.02 0H41.5027L45.02 3.4375V0Z" fill="#00C4C4"/>
<g clip-path="url(#clip0_41_325)">
<path d="M20.47 24.25C20.47 24.3826 20.5226 24.5098 20.6164 24.6036C20.7102 24.6973 20.8374 24.75 20.97 24.75H22.97C23.1026 24.75 23.2298 24.6973 23.3235 24.6036C23.4173 24.5098 23.47 24.3826 23.47 24.25V22.75C23.47 22.6174 23.5226 22.4902 23.6164 22.3964C23.7102 22.3027 23.8374 22.25 23.97 22.25H25.47C25.6026 22.25 25.7298 22.1973 25.8235 22.1036C25.9173 22.0098 25.97 21.8826 25.97 21.75V19.75C25.97 19.6174 25.9173 19.4902 25.8235 19.3964C25.7298 19.3027 25.6026 19.25 25.47 19.25H24C23.8674 19.25 23.7402 19.1973 23.6464 19.1036C23.5526 19.0098 23.5 18.8826 23.5 18.75V17.25C23.5 17.1174 23.4473 16.9902 23.3535 16.8964C23.2598 16.8027 23.1326 16.75 23 16.75H21C20.8674 16.75 20.7402 16.8027 20.6464 16.8964C20.5526 16.9902 20.5 17.1174 20.5 17.25V18.75C20.5 18.8826 20.4473 19.0098 20.3535 19.1036C20.2598 19.1973 20.1326 19.25 20 19.25H18.47C18.3374 19.25 18.2102 19.3027 18.1164 19.3964C18.0226 19.4902 17.97 19.6174 17.97 19.75V21.75C17.97 21.8826 18.0226 22.0098 18.1164 22.1036C18.2102 22.1973 18.3374 22.25 18.47 22.25H20C20.1326 22.25 20.2598 22.3027 20.3535 22.3964C20.4473 22.4902 20.5 22.6174 20.5 22.75L20.47 24.25Z" fill="#0091A5"/>
<path d="M13.47 24.73C13.6013 24.73 13.7313 24.7041 13.8527 24.6539C13.974 24.6036 14.0842 24.53 14.1771 24.4371C14.2699 24.3442 14.3436 24.234 14.3939 24.1127C14.4441 23.9914 14.47 23.8613 14.47 23.73V15.42C14.47 15.244 14.5392 15.0751 14.6627 14.9497C14.7862 14.8244 14.954 14.7526 15.13 14.75H28.8C28.888 14.75 28.9751 14.7673 29.0564 14.801C29.1377 14.8347 29.2115 14.884 29.2737 14.9462C29.3359 15.0085 29.3853 15.0823 29.419 15.1636C29.4526 15.2449 29.47 15.332 29.47 15.42V23.73C29.47 23.9952 29.5753 24.2496 29.7629 24.4371C29.9504 24.6246 30.2048 24.73 30.47 24.73C30.7352 24.73 30.9895 24.6246 31.1771 24.4371C31.3646 24.2496 31.47 23.9952 31.47 23.73V15.42C31.4673 14.7127 31.1852 14.0351 30.685 13.5349C30.1849 13.0348 29.5073 12.7526 28.8 12.75H15.13C14.4236 12.7526 13.747 13.0351 13.2485 13.5356C12.7499 14.036 12.47 14.7136 12.47 15.42V23.73C12.47 23.9952 12.5753 24.2496 12.7629 24.4371C12.9504 24.6246 13.2048 24.73 13.47 24.73Z" fill="#0091A5"/>
<path d="M33.8899 26.44C33.8439 26.3805 33.7848 26.3324 33.7171 26.2995C33.6495 26.2665 33.5752 26.2496 33.4999 26.25H25.4999C25.3673 26.25 25.2402 26.3027 25.1464 26.3965C25.0526 26.4902 24.9999 26.6174 24.9999 26.75C24.9999 27.46 23.7699 28.25 21.9999 28.25C20.2299 28.25 18.9999 27.46 18.9999 26.75C18.9999 26.6174 18.9473 26.4902 18.8535 26.3965C18.7597 26.3027 18.6326 26.25 18.4999 26.25H10.4999C10.4247 26.2496 10.3504 26.2665 10.2828 26.2995C10.2151 26.3324 10.156 26.3805 10.1099 26.44C10.0618 26.4993 10.0285 26.5693 10.0129 26.6441C9.99721 26.7189 9.99964 26.7963 10.0199 26.87C10.3287 28.1214 11.0483 29.233 12.0636 30.0271C13.0788 30.8211 14.331 31.2517 15.6199 31.25H28.3799C29.6723 31.2562 30.9291 30.8277 31.9485 30.0333C32.9678 29.2388 33.6903 28.1247 33.9999 26.87C34.0176 26.7948 34.0168 26.7164 33.9976 26.6415C33.9785 26.5667 33.9415 26.4975 33.8899 26.44Z" fill="#0091A5"/>
</g>
<defs>
<linearGradient id="paint0_linear_41_325" x1="22.511" y1="0" x2="22.511" y2="44" gradientUnits="userSpaceOnUse">
<stop stop-color="#00C4C4"/>
<stop offset="1" stop-color="#00C4C4" stop-opacity="0.6"/>
</linearGradient>
<linearGradient id="paint1_linear_41_325" x1="0" y1="0" x2="43.9884" y2="45.0101" gradientUnits="userSpaceOnUse">
<stop offset="0.18971" stop-color="#00C4C4"/>
<stop offset="0.497724" stop-color="#00C4C4"/>
<stop offset="0.791148" stop-color="#00C4C4"/>
</linearGradient>
<clipPath id="clip0_41_325">
<rect width="24" height="24" fill="white" transform="translate(10 10)"/>
</clipPath>
</defs>
</svg>
