<svg width="35" height="35" viewBox="0 0 35 35" fill="none" xmlns="http://www.w3.org/2000/svg">
<g clip-path="url(#clip0_2811_20098)">
<path d="M15.3312 1.18251L15.6216 2.03619C15.8667 2.7565 15.9917 3.51218 15.9917 4.27304V7.84564C15.9917 9.03155 15.6128 10.1864 14.9102 11.1418L9.26723 18.8143C7.96376 20.5866 7.26074 22.729 7.26074 24.9291C7.26074 26.0581 7.50779 27.1668 7.97715 28.1801C8.30261 28.8828 9.35644 28.65 9.35644 27.8756V26.1806C9.35643 23.7918 10.1851 21.4769 11.7011 19.6308L17.3909 12.702C17.4041 12.6859 17.4207 12.673 17.4396 12.6641C17.4584 12.6552 17.479 12.6505 17.4998 12.6505C17.5206 12.6505 17.5412 12.6552 17.56 12.6641C17.5788 12.673 17.5954 12.6859 17.6086 12.702L23.2985 19.6308C24.8145 21.4769 25.6431 23.7918 25.6431 26.1806V27.8756C25.6431 28.65 26.6969 28.8828 27.0224 28.1801C27.4944 27.1613 27.7388 26.0519 27.7388 24.9291C27.7388 22.729 27.0358 20.5866 25.7323 18.8143L20.0894 11.1418C19.3868 10.1865 19.0078 9.0316 19.0078 7.84571V4.27304C19.0078 3.5122 19.1329 2.75649 19.3779 2.03619L19.6684 1.18251C19.6792 1.15072 19.6823 1.1168 19.6774 1.08357C19.6725 1.05034 19.6597 1.01876 19.6402 0.991447C19.6206 0.964137 19.5948 0.941885 19.5649 0.926537C19.5351 0.911189 19.502 0.903188 19.4684 0.903198H15.5312C15.4976 0.903188 15.4645 0.911189 15.4346 0.926537C15.4047 0.941885 15.379 0.964137 15.3594 0.991447C15.3398 1.01876 15.3271 1.05034 15.3222 1.08357C15.3173 1.1168 15.3204 1.15072 15.3312 1.18251Z" fill="#C54573"/>
<path d="M34.8161 30.8668C34.663 31.1389 34.4247 31.3531 34.1379 31.4766L31.2076 32.74C29.5607 33.4502 27.7235 33.5894 25.9884 33.1354C24.2532 32.6814 22.7197 31.6602 21.6317 30.2343C20.8974 29.2727 20.3899 28.1576 20.1472 26.9723V26.9717C19.9076 25.8052 19.752 24.623 19.6816 23.4343L22.7988 25.2039C24.3513 26.5578 26.3416 27.3038 28.4016 27.3039C30.4741 27.3039 32.51 28.4997 34.0664 29.868L34.8161 30.8668Z" fill="#C54573"/>
<path d="M34.6365 29.2975V30.1694L34.0666 29.8676C33.8064 29.6388 33.4526 29.7711 33.1693 29.5773C31.7515 28.6072 30.0736 28.0882 28.3557 28.0882C27.3254 28.0882 26.3134 27.9016 25.3641 27.546C24.4148 27.1904 23.5296 26.6649 22.7529 25.9882L19.6818 23.4339C19.5916 21.9374 19.6369 20.4357 19.817 18.9473L19.9488 17.8537L20.4395 17.4202L20.0845 16.729L20.3739 14.3283L20.8106 13.7881L20.5013 13.272L21.4177 5.66918C21.4917 5.05716 21.8883 4.55534 22.4248 4.32483C22.4248 4.32483 22.8725 4.34657 23.1073 4.34657C24.4333 4.34657 25.4495 5.01054 26.398 5.93729C27.734 7.2422 28.5116 8.68103 29.301 10.3415C30.0904 12.0021 30.5644 13.6413 30.7327 15.5011C30.7794 16.0331 30.9691 16.6955 31.32 17.2772C33.3637 20.9743 34.6365 25.0729 34.6365 29.2975Z" fill="#F0ABC4"/>
<path d="M35.0001 29.2938V30.1656C35.0001 30.4163 34.9346 30.6565 34.8163 30.8663L33.9853 30.2114C33.7264 29.9837 33.4538 29.772 33.1691 29.5775V29.2937C33.1691 25.0691 32.0966 20.9141 30.053 17.217C29.7684 16.7256 29.5327 16.1532 29.4656 15.441C29.2973 13.5811 28.8001 11.7818 28.0107 10.1212C27.2213 8.46064 26.141 6.93882 24.8051 5.63391C24.1456 4.98896 23.3226 4.5363 22.4248 4.32476C22.6343 4.23439 22.86 4.18788 23.0882 4.18811C24.4142 4.18818 25.6876 4.70711 26.636 5.63391C27.9612 6.92863 29.0465 8.44788 29.8417 10.1212C30.6371 11.7946 31.1297 13.5957 31.2966 15.441C31.3433 15.9729 31.533 16.6354 31.8839 17.217C33.9277 20.9141 35 25.0694 35.0001 29.2938Z" fill="#CE5E87"/>
<path d="M25.7221 20.0289C25.2445 20.2995 24.7126 20.46 24.1651 20.4986C24.7516 21.2824 25.4883 21.95 26.3305 22.4542L26.9376 22.8176C27.1876 22.9676 27.2693 23.2922 27.1193 23.5422C27.0724 23.6207 27.006 23.6856 26.9265 23.7307C26.847 23.7757 26.7572 23.7994 26.6658 23.7993C26.5702 23.7995 26.4764 23.7734 26.3947 23.7239L25.7876 23.3605C24.5454 22.6162 23.5031 21.5619 22.7743 20.3105C22.1947 19.3155 21.3384 18.5303 20.2976 18.0387C20.2897 18.0352 20.2819 18.0315 20.2743 18.0274L19.9482 17.8542L20.0841 16.7295L20.7602 17.0894C21.8667 17.6126 22.8082 18.4296 23.482 19.4513H23.9109C24.3627 19.451 24.8067 19.3336 25.1996 19.1105C25.7518 18.7969 26.3759 18.632 27.0109 18.6316H27.1284C27.42 18.6316 27.6566 18.8682 27.6566 19.1598C27.6566 19.4513 27.42 19.6879 27.1284 19.6879H27.0109C26.559 19.6881 26.1149 19.8056 25.7221 20.0289ZM21.1644 14.3289H20.3735L20.501 13.2725H21.1644C21.5066 13.2725 21.8475 13.3071 22.182 13.3719L22.1918 13.3627C22.9239 12.7154 23.8253 12.2902 24.7904 12.1367C24.8589 12.1258 24.9289 12.1285 24.9963 12.1447C25.0637 12.1608 25.1273 12.1901 25.1834 12.2308C25.2395 12.2716 25.2871 12.323 25.3233 12.3821C25.3596 12.4412 25.3838 12.5069 25.3946 12.5754C25.4411 12.8634 25.2447 13.1338 24.9566 13.1796C24.4073 13.2672 23.8818 13.4661 23.4122 13.7641C23.7857 13.9334 24.1386 14.1446 24.4643 14.3937C24.6953 14.5712 24.739 14.9028 24.5615 15.1345C24.5122 15.1988 24.4488 15.2508 24.3761 15.2866C24.3034 15.3223 24.2235 15.3409 24.1425 15.3408C24.0261 15.3412 23.9128 15.3028 23.8207 15.2317C23.063 14.65 22.1193 14.3289 21.1644 14.3289Z" fill="#CE5E87"/>
<path d="M0.18457 30.8668C0.337718 31.1389 0.575992 31.3531 0.862764 31.4766L3.79306 32.74C5.44001 33.4502 7.27717 33.5894 9.01234 33.1354C10.7475 32.6814 12.281 31.6602 13.369 30.2343C14.1033 29.2727 14.6108 28.1576 14.8535 26.9723V26.9717C15.0931 25.8052 15.2487 24.623 15.3191 23.4343L11.8504 25.3149C10.2979 26.6689 8.30756 27.4149 6.24757 27.4149C4.17505 27.4149 2.45731 28.3671 0.900977 29.7354L0.18457 30.8668Z" fill="#C54573"/>
<path d="M0 29.2942V30.1661C0 30.4167 0.0654883 30.6569 0.183818 30.8668L1.01479 30.2118C2.57091 28.8434 4.57214 28.0886 6.64433 28.0886C7.67457 28.0886 8.68656 27.9019 9.63587 27.5463C10.5852 27.1907 11.4704 26.6653 12.2471 25.9886L15.3182 23.4343C15.4084 21.94 15.1052 20.5684 14.9249 19.0776L13.3872 5.94094C13.2851 5.09588 12.7142 4.39 11.8628 4.39C11.498 4.39 11.2191 4.33696 10.8353 4.30408C9.90294 4.50654 9.04647 4.96758 8.36404 5.63435C7.03887 6.92907 5.95356 8.44832 5.1584 10.1217C4.36294 11.795 3.87036 13.5961 3.70351 15.4414C3.65675 15.9734 3.46705 16.6358 3.11616 17.2174C1.07236 20.9145 0.000180211 25.0698 0 29.2942Z" fill="#F0ABC4"/>
<path d="M15.318 23.4338L13.7068 24.7739C13.7519 23.1197 13.654 20.2802 13.4927 18.9472L11.892 5.66905C11.8159 5.03809 11.3969 4.52396 10.835 4.30357C11.1887 4.22688 11.5497 4.18817 11.9117 4.18811C12.7631 4.18811 13.48 4.82399 13.5821 5.66912L14.4987 13.2718L14.3579 13.7913L14.626 14.3282L14.9155 16.7289L14.6258 17.4202L15.051 17.8536L15.1829 18.9472C15.363 20.4356 15.4082 21.9373 15.318 23.4338Z" fill="#CE5E87"/>
<path d="M11.5183 19.4514H11.0894C10.6376 19.4511 10.1936 19.3337 9.80072 19.1106C9.24854 18.797 8.62447 18.632 7.98947 18.6317H7.87189C7.58034 18.6317 7.34375 18.8683 7.34375 19.1599C7.34375 19.4514 7.58034 19.688 7.87189 19.688H7.98947C8.44132 19.6881 8.88539 19.8055 9.27818 20.0288C9.75573 20.2994 10.2877 20.4599 10.8352 20.4985C10.2486 21.2823 9.51197 21.9499 8.66972 22.4542L8.06269 22.8176C7.8127 22.9675 7.73101 23.2922 7.88099 23.5422C7.92786 23.6206 7.99429 23.6855 8.07378 23.7306C8.15328 23.7756 8.24311 23.7993 8.33448 23.7992C8.42745 23.7992 8.52042 23.7753 8.6056 23.7239L9.21263 23.3605C10.4549 22.6161 11.4971 21.5619 12.226 20.3105C12.7093 19.4786 13.3974 18.7843 14.2249 18.2937C14.1305 17.9548 13.9956 17.6251 13.8689 17.2802C12.9211 17.8029 12.1144 18.548 11.5183 19.4514ZM12.8184 13.3719L12.8085 13.3627C12.0764 12.7154 11.175 12.2902 10.2099 12.1367C10.1414 12.1258 10.0715 12.1285 10.004 12.1447C9.9366 12.1608 9.87301 12.1901 9.81689 12.2308C9.76078 12.2716 9.71325 12.323 9.67701 12.3821C9.64077 12.4412 9.61653 12.5069 9.60569 12.5754C9.55921 12.8634 9.75567 13.1338 10.0437 13.1796C10.593 13.2672 11.1185 13.4661 11.5881 13.7641C11.2147 13.9334 10.8617 14.1446 10.536 14.3937C10.305 14.5712 10.2613 14.9028 10.4388 15.1345C10.4881 15.1988 10.5516 15.2508 10.6242 15.2866C10.6969 15.3223 10.7768 15.3409 10.8578 15.3408C10.9743 15.3412 11.0875 15.3028 11.1797 15.2317C11.8948 14.6827 12.7757 14.3661 13.6752 14.3322C13.6379 13.9809 13.5634 13.6444 13.5097 13.2841C13.2776 13.2986 13.0467 13.3279 12.8184 13.3719Z" fill="#CE5E87"/>
<path d="M13.8351 14.3285C13.5365 14.3285 13.2386 14.3602 12.9471 14.4208L12.8203 13.3708C13.1541 13.3067 13.4935 13.2722 13.8351 13.2722H14.4985L14.626 14.3286H13.8351V14.3285ZM15.0513 17.8539C14.5523 18.1107 13.9633 18.4057 13.4773 18.8215L13.3316 17.6088C13.6203 17.4124 13.9238 17.2387 14.2393 17.0891L14.9154 16.7292L15.0513 17.8539Z" fill="#C54573"/>
</g>
<defs>
<clipPath id="clip0_2811_20098">
<rect width="35" height="35" fill="white"/>
</clipPath>
</defs>
</svg>
