<svg width="46" height="44" viewBox="0 0 46 44" fill="none" xmlns="http://www.w3.org/2000/svg">
<path d="M39.2539 0.34082L44.6807 5.64355V38.3555L39.2539 43.6592H5.76758L0.34082 38.3555V5.64355L5.76758 0.34082H39.2539Z" fill="url(#paint0_linear_39_73)" fill-opacity="0.4" stroke="url(#paint1_linear_39_73)" stroke-width="0.682445"/>
<path d="M0.348877 30.9375L0.348877 38.5L5.62489 43.6562H12.6596" stroke="#00C4C4" stroke-width="0.682445"/>
<path d="M45.02 0H41.5027L45.02 3.4375V0Z" fill="#00C4C4"/>
<path d="M30.7266 10.0027C30.7834 10.0041 30.8408 10.0075 30.8975 10.0105C30.9491 10.0132 31.0013 10.0153 31.0527 10.0193C31.0998 10.0229 31.1474 10.0282 31.1943 10.033C31.2571 10.0393 31.3204 10.0462 31.3828 10.0545C31.4227 10.0597 31.4632 10.066 31.5029 10.072C31.5686 10.0821 31.6349 10.0921 31.7002 10.1043C31.731 10.11 31.7622 10.1175 31.793 10.1238C31.8732 10.1401 31.9537 10.1578 32.0332 10.1775C32.0385 10.1788 32.0445 10.1801 32.0498 10.1814C32.2489 10.2314 32.4461 10.2924 32.6396 10.364C32.6575 10.3706 32.6756 10.3787 32.6934 10.3855C32.7773 10.4176 32.8616 10.4508 32.9443 10.4871C32.9552 10.4918 32.9667 10.4969 32.9775 10.5017C33.0631 10.5399 33.1483 10.5811 33.2324 10.6238C33.2518 10.6336 33.2717 10.644 33.291 10.6541C33.3693 10.695 33.4476 10.738 33.5244 10.783C33.5261 10.7839 33.5286 10.785 33.5303 10.7859C33.5366 10.7896 33.5435 10.7939 33.5498 10.7976C33.6464 10.8549 33.7418 10.9165 33.8359 10.9802C33.867 11.0013 33.8979 11.0239 33.9287 11.0457C34.0039 11.0989 34.0789 11.1542 34.1523 11.2117C34.1931 11.2436 34.2343 11.2762 34.2744 11.3093C34.2996 11.3302 34.3256 11.3514 34.3506 11.3728C34.4146 11.4276 34.4785 11.4845 34.541 11.5427C34.5688 11.5688 34.5965 11.5961 34.624 11.6228C34.694 11.6907 34.7642 11.7604 34.832 11.8328C34.9144 11.921 34.9946 12.0119 35.0723 12.1033C35.1002 12.1361 35.127 12.1707 35.1543 12.2039C35.2047 12.2652 35.2554 12.3269 35.3037 12.3894C35.336 12.4312 35.368 12.474 35.3994 12.5164C35.4361 12.5659 35.4724 12.6165 35.5078 12.6668C35.5447 12.719 35.5817 12.7719 35.6172 12.825C35.6453 12.8671 35.6729 12.9103 35.7002 12.9529C35.7359 13.0086 35.7724 13.0644 35.8066 13.1209C35.9799 13.4065 36.1347 13.7022 36.2705 14.0047C36.2803 14.0265 36.2892 14.0501 36.2988 14.072C36.3112 14.1003 36.3229 14.1296 36.335 14.158C36.3724 14.2464 36.4091 14.3359 36.4434 14.4255C36.4509 14.4451 36.4585 14.4655 36.4658 14.4851C36.4993 14.5748 36.5312 14.6659 36.5615 14.7566C36.5712 14.7855 36.5824 14.8146 36.5918 14.8435C36.6269 14.9526 36.6589 15.0633 36.6895 15.1736C36.6955 15.1954 36.7012 15.2181 36.707 15.24C36.7317 15.3319 36.7558 15.4247 36.7773 15.5173C36.7821 15.5376 36.7874 15.5585 36.792 15.5789C36.8128 15.6717 36.8309 15.7657 36.8486 15.8591C36.857 15.9031 36.8654 15.9478 36.873 15.992C36.8831 16.0499 36.8925 16.1086 36.9014 16.1668C36.9135 16.2468 36.9247 16.3277 36.9346 16.408C36.9454 16.4962 36.9558 16.5851 36.9639 16.6736C36.9664 16.7013 36.9684 16.7298 36.9707 16.7576C36.9775 16.8409 36.9829 16.9251 36.9873 17.0086C36.99 17.0597 36.9924 17.1116 36.9941 17.1629C36.996 17.2183 36.9962 17.2744 36.9971 17.3298C36.998 17.3898 36.9994 17.4505 36.999 17.5105C36.9977 17.7316 36.988 17.9532 36.9697 18.1736C36.9651 18.2288 36.9588 18.2845 36.9531 18.3396C36.9476 18.3938 36.9421 18.4486 36.9355 18.5027C36.9286 18.5598 36.9212 18.6176 36.9131 18.6746C36.9052 18.7301 36.8967 18.7862 36.8877 18.8416C36.8781 18.9007 36.8673 18.9604 36.8564 19.0193C36.8417 19.0994 36.8257 19.1799 36.8086 19.2595C36.796 19.3181 36.7824 19.377 36.7686 19.4353C36.7483 19.5207 36.727 19.6064 36.7041 19.6912C36.6952 19.724 36.6851 19.7571 36.6758 19.7898C36.6554 19.8618 36.6337 19.9341 36.6113 20.0056C36.5955 20.0562 36.5803 20.1077 36.5635 20.158C36.492 20.372 36.4114 20.5838 36.3223 20.7918C36.3094 20.8217 36.2954 20.8518 36.2822 20.8816C36.2479 20.959 36.2125 21.0366 36.1758 21.113C36.1582 21.1496 36.1392 21.1861 36.1211 21.2224C36.0832 21.2983 36.0443 21.3742 36.0039 21.449C35.9884 21.4778 35.9729 21.5073 35.957 21.5359C35.914 21.6133 35.869 21.6903 35.8232 21.7664C35.8056 21.7957 35.7885 21.8261 35.7705 21.8552C35.7109 21.9516 35.6489 22.0473 35.585 22.1414C35.561 22.1765 35.5353 22.211 35.5107 22.2459C35.4706 22.3029 35.4294 22.3597 35.3877 22.4158C35.3553 22.4592 35.3224 22.5028 35.2891 22.5457C35.2449 22.6025 35.1992 22.6588 35.1533 22.7146C35.1246 22.7494 35.0958 22.7847 35.0664 22.8191C34.9902 22.9084 34.9127 22.9975 34.832 23.0838L28.5586 29.5066L31.5713 28.9255C33.0529 28.4557 33.8629 28.916 34.0459 29.5691C34.0501 29.5842 34.0531 29.5997 34.0566 29.615C34.0628 29.6415 34.0691 29.668 34.0732 29.6951C34.0762 29.7145 34.0781 29.734 34.0801 29.7537C34.083 29.7828 34.0853 29.812 34.0859 29.8416C34.0862 29.8539 34.0861 29.8663 34.0859 29.8787C34.0855 29.916 34.0831 29.9534 34.0791 29.991C34.078 30.0017 34.0766 30.0125 34.0752 30.0232C34.0709 30.0552 34.0644 30.0869 34.0576 30.1189C34.0535 30.1384 34.05 30.1581 34.0449 30.1775C34.0416 30.1902 34.0379 30.2029 34.0342 30.2156C34.0239 30.2506 34.0123 30.2854 33.999 30.3201C33.9645 30.4101 33.9201 30.4988 33.8652 30.5847C33.8576 30.5967 33.8489 30.608 33.8408 30.6199C33.8192 30.6518 33.7969 30.6837 33.7725 30.7146C33.7558 30.7357 33.7377 30.7556 33.7197 30.7761C33.7044 30.7937 33.6892 30.8117 33.6729 30.8289C33.6513 30.8515 33.6286 30.8734 33.6055 30.8953C33.586 30.9136 33.5665 30.9322 33.5459 30.95C33.5237 30.9691 33.5011 30.9882 33.4775 31.0066C33.4545 31.0247 33.4306 31.042 33.4062 31.0593C33.3818 31.0767 33.3568 31.0936 33.3311 31.1101C33.2983 31.1312 33.2643 31.151 33.2295 31.1707C33.213 31.18 33.1967 31.19 33.1797 31.199C33.0646 31.2598 32.9393 31.3139 32.8027 31.3572L25.8057 33.573C24.8513 33.8756 24.145 34.1179 23.418 34.2048C23.2361 34.2266 23.0529 34.2382 22.8643 34.239C22.2984 34.2415 21.6827 34.1432 20.9043 33.9041L17.3467 32.949L12.9609 31.7713V32.3748C12.9609 32.4449 12.9048 32.5054 12.8252 32.531C12.7988 32.5395 12.7696 32.5437 12.7393 32.5437H9.2207L9.13477 32.531C9.0559 32.5053 9.00001 32.4448 9 32.3748V24.9441C9.00003 24.8508 9.10002 24.7752 9.2207 24.7752H12.7393C12.8614 24.7753 12.9609 24.8508 12.9609 24.9441V25.489L16.1387 24.9744L17.4736 24.7566C19.8442 24.3718 20.9304 24.0276 22.458 24.3045L24.8145 24.7312C25.4259 24.9228 25.8388 25.2495 26.0654 25.615C26.0938 25.6606 26.1169 25.708 26.1396 25.7547L26.1416 25.7537C26.144 25.7587 26.1451 25.7643 26.1475 25.7693C26.1633 25.8028 26.1765 25.837 26.1895 25.8709C26.2005 25.8996 26.2118 25.9279 26.2207 25.9568C26.2292 25.9843 26.2356 26.0122 26.2422 26.0398C26.2505 26.0744 26.2573 26.1088 26.2627 26.1433C26.2671 26.1717 26.27 26.2 26.2725 26.2283C26.2752 26.26 26.277 26.2915 26.2773 26.323C26.2776 26.3532 26.2763 26.383 26.2744 26.4129C26.2727 26.4407 26.2712 26.4683 26.2676 26.4959C26.2635 26.5268 26.2575 26.5572 26.251 26.5877C26.2441 26.6199 26.2361 26.6518 26.2266 26.6834C26.2189 26.7088 26.2096 26.7336 26.2002 26.7586C26.1882 26.7904 26.1749 26.8215 26.1602 26.8523C26.1489 26.8758 26.1369 26.8988 26.124 26.9216C26.1076 26.9508 26.0903 26.9795 26.0713 27.0076C26.055 27.0316 26.0377 27.0548 26.0195 27.0779C25.9991 27.1039 25.9769 27.1284 25.9541 27.1531C25.9339 27.1749 25.9136 27.1968 25.8916 27.2175C25.8674 27.2403 25.8418 27.2616 25.8154 27.283C25.7864 27.3065 25.7573 27.3306 25.7256 27.3523C25.7181 27.3574 25.7108 27.3629 25.7031 27.3679C25.6561 27.3988 25.6063 27.4273 25.5537 27.4539C25.544 27.4588 25.5343 27.4638 25.5244 27.4685C25.4696 27.4948 25.4121 27.5185 25.3516 27.5398C25.3419 27.5432 25.3321 27.5463 25.3223 27.5496C25.2603 27.5702 25.1957 27.5884 25.1279 27.6033C25.1189 27.6053 25.1098 27.6073 25.1006 27.6091C25.0306 27.6236 24.9578 27.6354 24.8818 27.6433C24.8728 27.6443 24.8636 27.6444 24.8545 27.6453C24.6889 27.6605 24.5099 27.6616 24.3174 27.6423C24.3011 27.6408 24.2826 27.6391 24.2646 27.6375C23.3974 27.5489 22.3834 27.4141 21.627 27.3191C21.5713 27.3108 21.5172 27.3079 21.4648 27.3084C21.3769 27.3093 21.2936 27.3208 21.2158 27.3435C21.1028 27.3765 21.0023 27.4321 20.9141 27.5017C20.9452 27.4878 20.9769 27.4745 21.0098 27.4636C21.0216 27.4597 21.0339 27.4554 21.0459 27.4519C21.1286 27.4283 21.2175 27.4157 21.3105 27.4148C21.3668 27.4144 21.4257 27.4175 21.4854 27.4265L22.875 27.6052C23.3714 27.6678 23.8839 27.7293 24.3555 27.7781C24.3746 27.7798 24.3947 27.7813 24.4121 27.783C24.4808 27.7899 24.5487 27.794 24.6143 27.7966C24.6942 27.7999 24.7724 27.7995 24.8477 27.7966C24.8582 27.7962 24.8694 27.7962 24.8799 27.7957C24.9694 27.7912 25.056 27.7818 25.1387 27.7693C25.145 27.7683 25.1519 27.7674 25.1582 27.7664C25.1807 27.7628 25.2036 27.7588 25.2256 27.7547C25.2531 27.7494 25.2809 27.7442 25.3076 27.738C25.3236 27.7344 25.3398 27.7294 25.3555 27.7254C25.3777 27.7197 25.4002 27.714 25.4219 27.7078C25.4482 27.7002 25.4745 27.6918 25.5 27.6834C25.5122 27.6793 25.5251 27.6759 25.5371 27.6716C25.5585 27.664 25.5798 27.6555 25.6006 27.6472C25.6246 27.6377 25.6488 27.6282 25.6719 27.6179C25.6809 27.6139 25.6903 27.6094 25.6992 27.6052C25.7628 27.5756 25.8232 27.5429 25.8799 27.5076C25.8888 27.502 25.8975 27.4957 25.9062 27.49C25.9208 27.4805 25.9352 27.4705 25.9492 27.4607C25.9979 27.4266 26.044 27.3904 26.0869 27.3523C26.0965 27.3438 26.1059 27.3347 26.1152 27.3259C26.1575 27.2863 26.1972 27.2451 26.2334 27.2019C26.2396 27.1945 26.246 27.1869 26.252 27.1795C26.2869 27.1359 26.3188 27.0903 26.3477 27.0437C26.3546 27.0325 26.3616 27.0209 26.3682 27.0095C26.4584 26.8534 26.5147 26.6827 26.5361 26.5056C26.5373 26.4964 26.5391 26.4866 26.54 26.4773C26.5452 26.4252 26.5468 26.372 26.5459 26.3191C26.5456 26.304 26.5457 26.2883 26.5449 26.2732C26.5422 26.2195 26.5354 26.1651 26.5264 26.1111C26.5248 26.1015 26.5233 26.0914 26.5215 26.0818C26.5113 26.0279 26.498 25.9734 26.4814 25.9197C26.4769 25.9049 26.4719 25.8895 26.4668 25.8748C26.4491 25.8231 26.428 25.7714 26.4043 25.7205C26.4015 25.7144 26.3994 25.707 26.3965 25.7009L26.3955 25.7019C26.3709 25.6507 26.3443 25.5986 26.3135 25.5486C26.0669 25.1461 25.6176 24.786 24.9531 24.575L22.3896 24.1043C20.7281 23.7993 19.5461 24.1792 16.9678 24.6033L15.5137 24.8425L14.9707 24.2859L13.7979 23.0838C10.9075 19.9905 10.9072 14.9276 13.7979 11.8328C16.4245 9.02184 20.7441 9.6451 23.4756 12.3386L23.9805 12.8377C24.2854 13.1374 24.3429 13.137 24.6406 12.8445L25.1553 12.3386C25.5952 11.9059 26.0761 11.526 26.584 11.2058C26.6274 11.1784 26.672 11.1523 26.7158 11.1257C27.0035 10.9517 27.2998 10.7964 27.6016 10.6609C27.6363 10.6453 27.6712 10.6291 27.7061 10.614C27.7578 10.5917 27.8102 10.5698 27.8623 10.5486C27.9147 10.5272 27.9678 10.5063 28.0205 10.4861C28.0639 10.4695 28.1078 10.453 28.1514 10.4373C28.209 10.4164 28.2673 10.3961 28.3252 10.3767C28.3657 10.3632 28.4067 10.3495 28.4473 10.3367C28.4676 10.3302 28.4884 10.3234 28.5088 10.3172C28.5608 10.3012 28.6139 10.287 28.666 10.2722C28.6939 10.2643 28.7221 10.2554 28.75 10.2478C28.8222 10.2283 28.8953 10.2104 28.9678 10.1931C29.0112 10.1828 29.0551 10.1724 29.0986 10.1629C29.1582 10.1498 29.2186 10.1382 29.2783 10.1267C29.325 10.1177 29.3722 10.1084 29.4189 10.1004C29.474 10.0909 29.5298 10.0831 29.585 10.075C29.6444 10.0662 29.7042 10.0568 29.7637 10.0496C29.8113 10.0438 29.8596 10.0397 29.9072 10.0349C29.9621 10.0294 30.0174 10.0234 30.0723 10.0193C30.1316 10.0149 30.1917 10.0124 30.251 10.0095C30.3026 10.007 30.3547 10.004 30.4062 10.0027C30.4194 10.0024 30.4332 10.002 30.4463 10.0017H30.6895C30.7016 10.002 30.7144 10.0024 30.7266 10.0027ZM24.3945 15.9568C24.3128 15.9569 24.2318 15.9783 24.1611 16.0193C24.0904 16.0604 24.0309 16.1202 23.9902 16.1912L22.1729 19.3689L21.0703 17.617C21.0285 17.5507 20.97 17.4957 20.9014 17.4578C20.8327 17.4199 20.7552 17.3992 20.6768 17.3992H20.6719C20.5927 17.4001 20.5141 17.4213 20.4453 17.4607C20.3766 17.5001 20.3192 17.557 20.2783 17.6248L19.1846 19.4422H16.54C16.2838 19.4426 16.0757 19.6506 16.0752 19.907C16.0753 20.1637 16.2835 20.3724 16.54 20.3728H19.4473C19.5274 20.3728 19.607 20.3517 19.6768 20.3123C19.7464 20.2728 19.8044 20.2158 19.8457 20.1472L20.6855 18.7527L21.7979 20.5213C21.8404 20.5888 21.9004 20.6444 21.9707 20.6824C22.0413 20.7204 22.1211 20.7396 22.2012 20.738C22.2812 20.7363 22.3598 20.7144 22.4287 20.6736C22.4975 20.6327 22.5549 20.5741 22.5947 20.5047L24.3857 17.3738L26.791 21.7586C26.8304 21.8302 26.8881 21.891 26.958 21.9334C27.028 21.9756 27.1087 21.9982 27.1904 21.9998L27.1982 22.0007C27.2787 22.0007 27.3587 21.979 27.4287 21.9392C27.4985 21.8994 27.5575 21.8423 27.5986 21.7732L29.0967 19.2566H32.709C32.9659 19.2566 33.1747 19.0477 33.1748 18.7908C33.1743 18.5341 32.9656 18.3259 32.709 18.3259H28.832C28.7517 18.326 28.6724 18.3468 28.6025 18.3865C28.5328 18.4262 28.4738 18.4836 28.4326 18.5525L27.2148 20.5974L24.8018 16.198C24.762 16.1258 24.7036 16.0645 24.6328 16.0222C24.5621 15.9801 24.4808 15.9575 24.3984 15.9568H24.3945Z" fill="#0091A5"/>
<defs>
<linearGradient id="paint0_linear_39_73" x1="22.511" y1="0" x2="22.511" y2="44" gradientUnits="userSpaceOnUse">
<stop stop-color="#00C4C4"/>
<stop offset="1" stop-color="#00C4C4" stop-opacity="0.6"/>
</linearGradient>
<linearGradient id="paint1_linear_39_73" x1="0" y1="0" x2="43.9884" y2="45.0101" gradientUnits="userSpaceOnUse">
<stop offset="0.18971" stop-color="#00C4C4"/>
<stop offset="0.497724" stop-color="#00C4C4"/>
<stop offset="0.791148" stop-color="#00C4C4"/>
</linearGradient>
</defs>
</svg>
