<svg width="46" height="44" viewBox="0 0 46 44" fill="none" xmlns="http://www.w3.org/2000/svg">
<path d="M39.2539 0.34082L44.6807 5.64355V38.3555L39.2539 43.6592H5.76758L0.34082 38.3555V5.64355L5.76758 0.34082H39.2539Z" fill="url(#paint0_linear_39_58)" fill-opacity="0.4" stroke="url(#paint1_linear_39_58)" stroke-width="0.682445"/>
<path d="M0.348877 30.9375L0.348877 38.5L5.62489 43.6562H12.6596" stroke="#00C4C4" stroke-width="0.682445"/>
<path d="M45.02 0H41.5027L45.02 3.4375V0Z" fill="#00C4C4"/>
<path d="M7.4844 34.0938H37.5156C37.6441 34.0938 37.7673 34.1448 37.8581 34.2356C37.949 34.3265 38 34.4497 38 34.5781V35.5469C38 35.9323 37.8469 36.3019 37.5744 36.5744C37.3018 36.8469 36.9323 37 36.5468 37H8.45313C8.06775 37 7.69813 36.8469 7.4256 36.5744C7.15312 36.3019 7 35.9323 7 35.5469V34.5781C7 34.4497 7.05104 34.3265 7.14185 34.2356C7.23271 34.1448 7.35592 34.0938 7.4844 34.0938Z" fill="#0091A5"/>
<path d="M25.8906 35.0625H19.1094C18.8525 35.0625 18.606 34.9605 18.4244 34.7787C18.2427 34.5971 18.1406 34.3507 18.1406 34.0938H26.8594C26.8594 34.3507 26.7573 34.5971 26.5756 34.7787C26.394 34.9605 26.1476 35.0625 25.8906 35.0625Z" fill="#0091A5"/>
<path d="M12.8127 10.3594C12.6843 10.3594 12.5611 10.3084 12.4702 10.2175C12.3794 10.1267 12.3284 10.0035 12.3284 9.87503V8.4219C12.3284 7.90805 12.5325 7.41521 12.8958 7.05187C13.2592 6.68853 13.752 6.48438 14.2658 6.48438C14.3943 6.48438 14.5175 6.53541 14.6083 6.62628C14.6992 6.71708 14.7502 6.84029 14.7502 6.96877C14.7502 7.09725 14.6992 7.22046 14.6083 7.31126C14.5175 7.40212 14.3943 7.45316 14.2658 7.45316C14.0089 7.45316 13.7625 7.55519 13.5809 7.73686C13.3992 7.91858 13.2971 8.16494 13.2971 8.4219V9.87503C13.2971 10.0035 13.2461 10.1267 13.1553 10.2175C13.0644 10.3084 12.9412 10.3594 12.8127 10.3594Z" fill="#0091A5"/>
<path d="M15.2344 7.93747H14.75C14.6215 7.93747 14.4983 7.88643 14.4075 7.79562C14.3167 7.70476 14.2656 7.58155 14.2656 7.45307V6.48434C14.2656 6.35586 14.3167 6.23271 14.4075 6.14185C14.4983 6.05098 14.6215 6 14.75 6H15.2344C15.4913 6 15.7377 6.10202 15.9194 6.28369C16.1011 6.46536 16.2031 6.71178 16.2031 6.96873C16.2031 7.22563 16.1011 7.47205 15.9194 7.65372C15.7377 7.83539 15.4913 7.93747 15.2344 7.93747Z" fill="#0091A5"/>
<path d="M22.5002 10.3593C22.3718 10.3593 22.2486 10.3082 22.1577 10.2174C22.0669 10.1266 22.0159 10.0034 22.0159 9.87489V8.42176C22.0159 8.16481 21.9138 7.91845 21.7321 7.73678C21.5505 7.55505 21.304 7.45303 21.0471 7.45303C20.9187 7.45303 20.7955 7.40199 20.7046 7.31113C20.6138 7.22032 20.5627 7.09711 20.5627 6.96864C20.5627 5.95628 22.9846 6.57629 22.9846 8.42176V9.87489C22.9846 10.0034 22.9336 10.1266 22.8428 10.2174C22.7519 10.3082 22.6287 10.3593 22.5002 10.3593ZM24.4377 13.7499C24.4372 14.074 24.4145 14.3976 24.3699 14.7186H20.3932C20.5062 14.4082 20.5636 14.0803 20.5627 13.7499H24.4377ZM14.9198 14.7186H10.9431C10.8984 14.3976 10.8758 14.074 10.8752 13.7499H14.7502C14.7493 14.0803 14.8067 14.4082 14.9198 14.7186Z" fill="#0091A5"/>
<path d="M24.3696 14.7188C24.2471 15.5727 23.9609 16.395 23.5268 17.1406H20.0393C19.7653 17.1421 19.4941 17.0854 19.2436 16.9744C18.9932 16.8633 18.7691 16.7004 18.5862 16.4964C19.002 16.3558 19.3807 16.1228 19.6935 15.8149C20.0065 15.507 20.2456 15.1322 20.3929 14.7188H24.3696Z" fill="#0091A5"/>
<path d="M23.5269 17.1406C22.6576 18.6383 21.2517 19.7499 19.5938 20.2503C19.5444 20.5995 19.3698 20.9187 19.1025 21.1487C18.8351 21.3786 18.4933 21.5034 18.1407 21.5H17.1719C16.8193 21.5034 16.4775 21.3786 16.2101 21.1487C15.9428 20.9187 15.7682 20.5995 15.7188 20.2503C14.4794 19.8774 13.3719 19.159 12.5261 18.1794C11.6802 17.1997 11.131 15.9993 10.9429 14.7188H14.9196C15.1753 15.4458 15.7093 16.0415 16.4042 16.3749C17.0991 16.7083 17.898 16.752 18.625 16.4964C18.808 16.7004 19.0321 16.8633 19.2825 16.9744C19.533 17.0854 19.8042 17.1421 20.0782 17.1406H23.5269Z" fill="#0091A5"/>
<path d="M20.0781 7.93747H20.5625C20.691 7.93747 20.8142 7.88643 20.905 7.79562C20.9959 7.70476 21.0468 7.58155 21.0468 7.45307V6.48434C21.0468 6.35586 20.9959 6.23271 20.905 6.14185C20.8142 6.05098 20.691 6 20.5625 6H20.0781C19.8212 6 19.5748 6.10202 19.3931 6.28369C19.2115 6.46536 19.1094 6.71178 19.1094 6.96873C19.1094 7.22563 19.2115 7.47205 19.3931 7.65372C19.5748 7.83539 19.8212 7.93747 20.0781 7.93747Z" fill="#0091A5"/>
<path d="M23.7109 26.8281C22.8316 26.8281 21.9613 26.6508 21.1521 26.3069C20.3428 25.963 19.6112 25.4595 19.0008 24.8266C18.3905 24.1936 17.9139 23.4442 17.5997 22.623C17.2854 21.8017 17.1399 20.9256 17.1718 20.0469C17.1718 19.9184 17.2228 19.7952 17.3137 19.7044C17.4045 19.6135 17.5277 19.5625 17.6562 19.5625C17.7847 19.5625 17.9079 19.6135 17.9987 19.7044C18.0895 19.7952 18.1406 19.9184 18.1406 20.0469V20.2891C18.1406 21.7664 18.7274 23.1833 19.7721 24.2279C20.8167 25.2725 22.2335 25.8594 23.7109 25.8594C25.1882 25.8594 26.6051 25.2725 27.6497 24.2279C28.6943 23.1833 29.2812 21.7664 29.2812 20.2891V11.8125C29.2812 11.684 29.3322 11.5608 29.4231 11.47C29.5139 11.3792 29.6371 11.3281 29.7655 11.3281C29.894 11.3281 30.0172 11.3792 30.108 11.47C30.1989 11.5608 30.2499 11.684 30.2499 11.8125V20.2891C30.2474 22.0225 29.5576 23.6843 28.3318 24.91C27.1061 26.1358 25.4443 26.8256 23.7109 26.8281Z" fill="#0091A5"/>
<path d="M21.5313 10.3592V13.7499C21.5313 14.7776 21.123 15.7632 20.3963 16.4899C19.6696 17.2166 18.684 17.6249 17.6562 17.6249C16.6285 17.6249 15.6429 17.2166 14.9162 16.4899C14.1895 15.7632 13.7812 14.7776 13.7812 13.7499V10.3592C13.7812 10.2308 13.7302 10.1076 13.6394 10.0167C13.5485 9.92592 13.4253 9.87488 13.2969 9.87488H12.3281C12.1997 9.87488 12.0765 9.92592 11.9856 10.0167C11.8947 10.1076 11.8438 10.2308 11.8438 10.3592V13.7499C11.8438 15.2914 12.4561 16.7699 13.5462 17.8599C14.6362 18.95 16.1147 19.5624 17.6562 19.5624C19.1978 19.5624 20.6762 18.95 21.7663 17.8599C22.8564 16.7699 23.4687 15.2914 23.4687 13.7499V10.3592C23.4687 10.2308 23.4177 10.1076 23.3269 10.0167C23.236 9.92592 23.1128 9.87488 22.9843 9.87488H22.0156C21.8871 9.87488 21.764 9.92592 21.6731 10.0167C21.5822 10.1076 21.5313 10.2308 21.5313 10.3592Z" fill="#0091A5"/>
<path d="M16.6875 18.5936H18.625V20.0468C18.625 20.1752 18.574 20.2984 18.4831 20.3892C18.3923 20.4801 18.2691 20.5312 18.1406 20.5312H17.1719C17.0434 20.5312 16.9202 20.4801 16.8294 20.3892C16.7385 20.2984 16.6875 20.1752 16.6875 20.0468V18.5936Z" fill="#0091A5"/>
<path d="M10.3906 26.8283H18.1406V27.797H10.3906V26.8283ZM30.7344 24.8907H34.6094V25.8595H30.7344V24.8907ZM10.3906 28.7657H18.1406V29.7345H10.3906V28.7657ZM10.3906 30.7033H18.1406V31.672H10.3906V30.7033Z" fill="#0091A5"/>
<path d="M29.7657 12.7812C31.6383 12.7812 33.1562 11.2632 33.1562 9.39059C33.1562 7.51799 31.6383 6 29.7657 6C27.893 6 26.375 7.51799 26.375 9.39059C26.375 11.2632 27.893 12.7812 29.7657 12.7812Z" fill="#0091A5"/>
<path d="M29.7656 11.3282C30.8357 11.3282 31.7031 10.4608 31.7031 9.39071C31.7031 8.32069 30.8357 7.45325 29.7656 7.45325C28.6956 7.45325 27.8281 8.32069 27.8281 9.39071C27.8281 10.4608 28.6956 11.3282 29.7656 11.3282Z" fill="#0091A5"/>
<defs>
<linearGradient id="paint0_linear_39_58" x1="22.511" y1="0" x2="22.511" y2="44" gradientUnits="userSpaceOnUse">
<stop stop-color="#00C4C4"/>
<stop offset="1" stop-color="#00C4C4" stop-opacity="0.6"/>
</linearGradient>
<linearGradient id="paint1_linear_39_58" x1="0" y1="0" x2="43.9884" y2="45.0101" gradientUnits="userSpaceOnUse">
<stop offset="0.18971" stop-color="#00C4C4"/>
<stop offset="0.497724" stop-color="#00C4C4"/>
<stop offset="0.791148" stop-color="#00C4C4"/>
</linearGradient>
</defs>
</svg>
