<svg width="46" height="44" viewBox="0 0 46 44" fill="none" xmlns="http://www.w3.org/2000/svg">
<path d="M39.2539 0.34082L44.6807 5.64355V38.3555L39.2539 43.6592H5.76758L0.34082 38.3555V5.64355L5.76758 0.34082H39.2539Z" fill="url(#paint0_linear_39_81)" fill-opacity="0.4" stroke="url(#paint1_linear_39_81)" stroke-width="0.682445"/>
<path d="M0.348877 30.9375L0.348877 38.5L5.62489 43.6562H12.6596" stroke="#00C4C4" stroke-width="0.682445"/>
<path d="M45.02 0H41.5027L45.02 3.4375V0Z" fill="#00C4C4"/>
<path d="M21.748 9.82031C22.0424 9.82032 22.334 9.83482 22.6221 9.8623C24.5098 10.0415 26.2482 10.7964 27.6406 11.9629C28.042 12.2991 28.4145 12.6697 28.7539 13.0703C28.9237 13.2707 29.0858 13.4783 29.2383 13.6934C30.0003 14.768 30.5392 16.0199 30.7832 17.3877L32.4766 27.1982H34.2686C35.2892 27.1982 36.116 28.0252 36.1162 29.0459V30.6035C36.1162 31.6242 35.2894 32.4512 34.2686 32.4512H9.24902C8.22832 32.451 7.40137 31.6241 7.40137 30.6035V29.0459C7.40158 28.0253 8.22848 27.1983 9.24902 27.1982H11.04L12.708 17.4082C13.4804 13.0206 17.2926 9.82031 21.748 9.82031ZM21.7588 22.6611C20.9857 22.6611 20.3578 23.2878 20.3574 24.0615C20.3574 24.8347 20.9855 25.4619 21.7588 25.4619C22.077 25.4623 22.3857 25.3537 22.6338 25.1543C22.954 24.898 23.159 24.5039 23.1592 24.0625C23.1591 23.6201 22.9542 23.2256 22.6338 22.9687C22.3856 22.7697 22.0769 22.661 21.7588 22.6611ZM21.7588 11.9482C20.5158 11.9482 19.5348 13.0035 19.624 14.2432L19.9824 19.2168C20.0489 20.1441 20.8204 20.8623 21.75 20.8623C22.0568 20.8625 22.3583 20.7825 22.625 20.6309C22.7439 20.5635 22.8549 20.4817 22.9551 20.3887C23.2828 20.085 23.4834 19.6682 23.5166 19.2227L23.8926 14.251C23.897 14.1929 23.8996 14.1344 23.8994 14.0771C23.8989 13.9627 23.8891 13.85 23.8711 13.7402C23.8081 13.3554 23.6416 13.003 23.4004 12.7148C23.3315 12.6326 23.2562 12.5555 23.1758 12.4844C23.0151 12.3421 22.8325 12.223 22.6338 12.1338C22.3586 12.0107 22.0603 11.9477 21.7588 11.9482ZM10.5352 18.3203C10.5926 18.3203 10.65 18.3324 10.7031 18.3545C10.7562 18.3765 10.8041 18.4086 10.8447 18.4492C10.8853 18.4898 10.9175 18.5378 10.9395 18.5908C10.9614 18.6439 10.9727 18.7013 10.9727 18.7588C10.9726 18.8748 10.9267 18.9863 10.8447 19.0684C10.7627 19.1503 10.6511 19.1962 10.5352 19.1963H7.4375C7.32156 19.1962 7.20994 19.1504 7.12793 19.0684C7.04594 18.9863 7.00008 18.8748 7 18.7588C7 18.6429 7.04605 18.5313 7.12793 18.4492C7.20994 18.3672 7.32156 18.3204 7.4375 18.3203H10.5352ZM36.0801 18.3203C36.1961 18.3204 36.3076 18.3672 36.3896 18.4492C36.4716 18.5313 36.5176 18.6428 36.5176 18.7588C36.5175 18.8748 36.4717 18.9863 36.3896 19.0684C36.3076 19.1504 36.1961 19.1962 36.0801 19.1963H32.9824C32.8664 19.1962 32.7549 19.1503 32.6729 19.0684C32.5909 18.9863 32.545 18.8748 32.5449 18.7588C32.5449 18.7013 32.5561 18.6439 32.5781 18.5908C32.6001 18.5378 32.6323 18.4898 32.6729 18.4492C32.7134 18.4087 32.7615 18.3765 32.8145 18.3545C32.8675 18.3324 32.925 18.3203 32.9824 18.3203H36.0801ZM9.41309 11.1641C9.47004 11.1715 9.52545 11.19 9.5752 11.2187L12.2578 12.7676C12.3414 12.8157 12.4064 12.8904 12.4434 12.9795C12.4803 13.0685 12.4869 13.1676 12.4619 13.2607C12.4368 13.3536 12.382 13.4356 12.3057 13.4941C12.2292 13.5527 12.1354 13.585 12.0391 13.585C11.9623 13.585 11.8867 13.5639 11.8203 13.5254L9.1377 11.9766C8.92842 11.8555 8.85662 11.588 8.97754 11.3789C9.00619 11.3293 9.04443 11.2859 9.08984 11.251C9.13547 11.2159 9.18764 11.1897 9.24316 11.1748C9.29852 11.1599 9.35629 11.1566 9.41309 11.1641ZM34.2744 11.1748C34.3299 11.1897 34.3821 11.216 34.4277 11.251C34.4732 11.2859 34.5113 11.3293 34.54 11.3789C34.5688 11.4287 34.5882 11.484 34.5957 11.541C34.6032 11.5979 34.5988 11.6556 34.584 11.7109C34.5691 11.7663 34.5437 11.8187 34.5088 11.8643C34.4738 11.9098 34.4296 11.9479 34.3799 11.9766L31.6973 13.5264C31.6311 13.5645 31.5559 13.5848 31.4795 13.585C31.4026 13.5851 31.3263 13.5648 31.2598 13.5264C31.1931 13.488 31.138 13.4319 31.0996 13.3652C31.0417 13.2647 31.0256 13.1452 31.0557 13.0332C31.0858 12.9212 31.1593 12.8256 31.2598 12.7676L33.9424 11.2187C33.9922 11.19 34.0475 11.1716 34.1045 11.1641C34.1613 11.1566 34.2191 11.16 34.2744 11.1748ZM14.3799 5.97656C14.589 5.85598 14.8567 5.92842 14.9775 6.13769L16.5264 8.82031C16.5646 8.88676 16.585 8.9624 16.585 9.03906C16.5848 9.1157 16.5647 9.19145 16.5264 9.25781C16.488 9.32422 16.4326 9.37956 16.3662 9.41797C16.2998 9.45633 16.2242 9.47646 16.1475 9.47656C16.0707 9.4767 15.9953 9.45627 15.9287 9.41797C15.8622 9.37959 15.807 9.32424 15.7686 9.25781L14.2197 6.57519C14.191 6.52544 14.1716 6.47006 14.1641 6.41309C14.1565 6.35622 14.161 6.29855 14.1758 6.24316C14.1906 6.18772 14.2161 6.13542 14.251 6.08984C14.286 6.04427 14.3301 6.00532 14.3799 5.97656ZM28.9766 5.92187C29.0335 5.92939 29.0889 5.9478 29.1387 5.97656C29.1884 6.00531 29.2317 6.04431 29.2666 6.08984C29.3016 6.13544 29.3269 6.18768 29.3418 6.24316C29.3566 6.29855 29.361 6.35621 29.3535 6.41309C29.346 6.47004 29.3276 6.5254 29.2988 6.57519L27.75 9.25781C27.7116 9.32441 27.6555 9.37952 27.5889 9.41797C27.5223 9.45625 27.4469 9.47671 27.3701 9.47656C27.2934 9.47645 27.2178 9.45636 27.1514 9.41797C27.0849 9.37954 27.0296 9.32426 26.9912 9.25781C26.9529 9.19144 26.9327 9.11572 26.9326 9.03906C26.9326 8.96242 26.953 8.88676 26.9912 8.82031L28.54 6.13769C28.5687 6.08789 28.6077 6.04382 28.6533 6.00879C28.6988 5.97402 28.7505 5.94851 28.8057 5.93359C28.8612 5.91872 28.9195 5.91441 28.9766 5.92187ZM21.7588 4C21.8163 3.99995 21.8736 4.01121 21.9268 4.0332C21.9797 4.05518 22.0278 4.08739 22.0684 4.12793C22.1089 4.16846 22.1411 4.21658 22.1631 4.26953C22.1851 4.32266 22.1963 4.38004 22.1963 4.4375V7.53516C22.1962 7.65124 22.1504 7.76268 22.0684 7.84473C21.9863 7.92673 21.8748 7.97266 21.7588 7.97266C21.7015 7.9727 21.6448 7.96134 21.5918 7.93945C21.5387 7.91746 21.4899 7.88533 21.4492 7.84473C21.4087 7.80419 21.3765 7.75604 21.3545 7.70312C21.3324 7.65003 21.3213 7.59262 21.3213 7.53516V4.4375C21.3212 4.38004 21.3325 4.32266 21.3545 4.26953C21.3765 4.21657 21.4087 4.16847 21.4492 4.12793C21.4899 4.08728 21.5387 4.0552 21.5918 4.0332C21.6448 4.01131 21.7015 3.99996 21.7588 4Z" fill="#0091A5"/>
<defs>
<linearGradient id="paint0_linear_39_81" x1="22.511" y1="0" x2="22.511" y2="44" gradientUnits="userSpaceOnUse">
<stop stop-color="#00C4C4"/>
<stop offset="1" stop-color="#00C4C4" stop-opacity="0.6"/>
</linearGradient>
<linearGradient id="paint1_linear_39_81" x1="0" y1="0" x2="43.9884" y2="45.0101" gradientUnits="userSpaceOnUse">
<stop offset="0.18971" stop-color="#00C4C4"/>
<stop offset="0.497724" stop-color="#00C4C4"/>
<stop offset="0.791148" stop-color="#00C4C4"/>
</linearGradient>
</defs>
</svg>
